<svg xmlns="http://www.w3.org/2000/svg" xmlns:xlink="http://www.w3.org/1999/xlink" viewBox="0 0 357.76 120.24"><defs><style>.cls-1{fill:none;}.cls-2{clip-path:url(#clip-path);}.cls-3{fill:#01a89e;}.cls-4{fill:#fff;}.cls-5{clip-path:url(#clip-path-2);}.cls-6{fill:url(#Degradado_sin_nombre_22);}.cls-7{fill:#878787;}</style><clipPath id="clip-path" transform="translate(0 13.12)"><rect class="cls-1" x="1.01" y="1.01" width="105.1" height="105.1" rx="52.55"/></clipPath><clipPath id="clip-path-2" transform="translate(0 13.12)"><path class="cls-1" d="M35.15,57.58c-.27-2.57-2.19-4.47-4.3-4.25s-3.6,2.48-3.33,5.05A5.64,5.64,0,0,0,27.93,60c-.19.87-1.11,2.5-5.26,2.5H22.2s-.72,0-.57,2.2S23.38,94,23.38,94s.19,1.12,1,1.13h0c.8,0,.89-1.3.89-1.3l.16-18.68a30.93,30.93,0,0,1,.8-6.05c.94-4.2,2.15-5.77,3.23-7.12a3.43,3.43,0,0,0,2.33.66C33.94,62.41,35.42,60.15,35.15,57.58Z"/></clipPath><linearGradient id="Degradado_sin_nombre_22" x1="35.19" y1="74.22" x2="21.61" y2="74.22" gradientUnits="userSpaceOnUse"><stop offset="0" stop-color="#f6f6f6"/><stop offset="1" stop-color="#c6c6c6"/></linearGradient></defs><g id="Capa_2" data-name="Capa 2"><g id="Capa_1-2" data-name="Capa 1"><g class="cls-2"><rect class="cls-3" x="1.01" y="14.13" width="105.1" height="105.1"/><path class="cls-4" d="M64.68-10a2.75,2.75,0,0,0-1.33-.25h-.2l-2.85,0h0a.68.68,0,0,1-.48-.13.83.83,0,0,1-.22-.45l-.45-1.6a.9.9,0,0,0-.87-.67h-9.4a.9.9,0,0,0-.87.67c-.15.53-.3,1.06-.44,1.59a1,1,0,0,1-.22.45.72.72,0,0,1-.49.13h-.05l-2.84,0h-.21a2.75,2.75,0,0,0-1.33.25,1.31,1.31,0,0,0-.7,1.39c.17.68.94.91,1.59,1l3.39.57a.92.92,0,0,1,.76.89,6.83,6.83,0,0,0,.19,2.52h0a.89.89,0,0,0,.82.53H58.62a.89.89,0,0,0,.83-.53h0a7,7,0,0,0,.2-2.52.9.9,0,0,1,.76-.89l3.39-.56c.64-.11,1.41-.34,1.58-1A1.31,1.31,0,0,0,64.68-10Z" transform="translate(0 13.12)"/><path class="cls-4" d="M52.47,59.23h0c-2.63.1-5.32,0-7.64-1.12a16.87,16.87,0,0,1-5.22-4.77l-2.78-3.4c-.14-.16-.25-.31-.38-.47C30,41.32,37.63,36.64,37.63,36.64A5.28,5.28,0,0,1,36.37,34a29.23,29.23,0,0,1,.57-13.37,8.66,8.66,0,0,0-7.29-3.17c-3.55.17-6.78,1.91-9.85,3.6-2.06,1.14-4.26,2.42-5.15,4.51a8.92,8.92,0,0,0-.27,4.73,47.44,47.44,0,0,0,2.3,9.29,3.36,3.36,0,0,0,1.12,1.77c.87.59,2.09.36,3.12.66a4.24,4.24,0,0,1,2.69,3.58c.24,1.53,0,3.09.24,4.62a9.07,9.07,0,0,0,.33,1.46c.45.57,1.7,1.63,4.44,1l.41-.08a4.49,4.49,0,0,1,1.69-.55l.46,0c2.65,0,4.9,2.32,5.22,5.39a5.9,5.9,0,0,1-3,6c-.73.54-2,1.93-.86,4.65h0l1.25,2.36c1.08,2,2.86,4.4,5.2,3.92a6.16,6.16,0,0,0,2.74-1.77,26.68,26.68,0,0,1,8.9-5.31,6.16,6.16,0,0,0,2.87-1.59v-5C53.53,59.16,52.47,59.23,52.47,59.23Zm-5.4,6.34a6.83,6.83,0,0,1-3.14,1.8,22.74,22.74,0,0,1-2.42.65,1.79,1.79,0,0,1-1.19,0,1.85,1.85,0,0,1-.68-.76A29.59,29.59,0,0,1,38,63.92a2.94,2.94,0,0,1-.35-1.8,2,2,0,0,1,1.15-1.33,4.2,4.2,0,0,1,3.89-.25c.77.39,1.39,1,2.15,1.44.58.31,1.23.5,1.79.84a1.65,1.65,0,0,1,.49,2.75Z" transform="translate(0 13.12)"/><path class="cls-4" d="M62.39,11.07a2.15,2.15,0,0,0-1.22-.22l-2.26,0a.52.52,0,0,1-.43-.12.89.89,0,0,1-.17-.41L58,8.94a.76.76,0,0,0-.74-.58h-7.4a.76.76,0,0,0-.74.58c-.11.47-.22.93-.34,1.39a.8.8,0,0,1-.17.41.52.52,0,0,1-.43.12l-2.25,0a2.18,2.18,0,0,0-1.23.22,1.25,1.25,0,0,0-.55,1.26c.14.63.75.83,1.26.93l2.67.51a.76.76,0,0,1,.62.71,8.21,8.21,0,0,0,.16,2.39v0a.74.74,0,0,0,.71.47h8a.75.75,0,0,0,.71-.47h0a7.88,7.88,0,0,0,.16-2.39.77.77,0,0,1,.62-.71l2.67-.51c.51-.1,1.13-.3,1.26-.93A1.25,1.25,0,0,0,62.39,11.07Z" transform="translate(0 13.12)"/><path class="cls-4" d="M63.59.87a2.59,2.59,0,0,0-1.2-.22h-.18l-2.57,0h0a.62.62,0,0,1-.44-.12A.83.83,0,0,1,59,.15l-.4-1.44a.81.81,0,0,0-.79-.6H49.29a.81.81,0,0,0-.79.6c-.13.48-.26,1-.4,1.43a.82.82,0,0,1-.19.41.64.64,0,0,1-.45.12h0l-2.56,0h-.19a2.59,2.59,0,0,0-1.2.22,1.18,1.18,0,0,0-.63,1.26c.16.62.85.82,1.43.92l3.06.51a.8.8,0,0,1,.68.79,6.38,6.38,0,0,0,.18,2.28v0a.79.79,0,0,0,.74.47h9.19a.8.8,0,0,0,.74-.48h0a6.38,6.38,0,0,0,.18-2.28.81.81,0,0,1,.68-.79l3.06-.51c.58-.1,1.28-.3,1.43-.92A1.18,1.18,0,0,0,63.59.87Z" transform="translate(0 13.12)"/><path class="cls-4" d="M65.09,16.77a7.28,7.28,0,0,1-4.62,1.79H46.6A7.3,7.3,0,0,1,42,16.77c-2.11-1.82-6.27,6.34-4.36,17A4,4,0,0,0,38.76,36l.26.25a1.45,1.45,0,0,1,.44,1.14l0,.31a1.29,1.29,0,0,0,.46,1.07l2.25,1.91a3.09,3.09,0,0,1,1.25,2.5.84.84,0,0,0,.17.55l2.36,3a3.88,3.88,0,0,1,.73,2.63,1.5,1.5,0,0,0,.4,1.1l3.42,3.71,1.66,2.12a7.85,7.85,0,0,0,.67.74,1.05,1.05,0,0,0,1.44,0,6.68,6.68,0,0,0,.67-.74l1.66-2.12L60,50.52a1.46,1.46,0,0,0,.39-1.14,3.58,3.58,0,0,1,.73-2.59l2.36-3a.86.86,0,0,0,.17-.56,3,3,0,0,1,1.06-2.34l2.44-2.06a1.26,1.26,0,0,0,.46-1.07l0-.31A1.45,1.45,0,0,1,68,36.26L68.3,36a4,4,0,0,0,1.16-2.2C71.36,23.11,67.21,15,65.09,16.77ZM45.21,39a1.94,1.94,0,0,1-2.12-1.69,2.17,2.17,0,0,1,4.23,0A1.94,1.94,0,0,1,45.21,39ZM46,43.11a1.9,1.9,0,0,1,3.7,0,1.9,1.9,0,0,1-3.7,0Zm3.85,6.43a1.18,1.18,0,1,1,1.44-1.15A1.32,1.32,0,0,1,49.88,49.54Zm7.3,0a1.18,1.18,0,1,1,1.44-1.15A1.33,1.33,0,0,1,57.18,49.54Zm2-5A1.51,1.51,0,1,1,61,43.11,1.69,1.69,0,0,1,59.18,44.58ZM61.86,39a1.94,1.94,0,0,1-2.12-1.69,2.17,2.17,0,0,1,4.23,0A1.93,1.93,0,0,1,61.86,39Z" transform="translate(0 13.12)"/><g class="cls-5"><path class="cls-6" d="M35.15,57.58c-.27-2.57-2.19-4.47-4.3-4.25s-3.6,2.48-3.33,5.05A5.64,5.64,0,0,0,27.93,60c-.19.87-1.11,2.5-5.26,2.5H22.2s-.72,0-.57,2.2S23.38,94,23.38,94s.19,1.12,1,1.13h0c.8,0,.89-1.3.89-1.3l.16-18.68a30.93,30.93,0,0,1,.8-6.05c.94-4.2,2.15-5.77,3.23-7.12a3.43,3.43,0,0,0,2.33.66C33.94,62.41,35.42,60.15,35.15,57.58Z" transform="translate(0 13.12)"/></g><path class="cls-4" d="M29.65,69.64a5.1,5.1,0,0,1-.6-2.53v0c0-.6-.11-2-.81-1.45-.88.68-1.64,6.21-1.64,6.21h0c-.13,1-.23,2.14-.29,3.28l-.16,18.66v.06c-.07,1-.63,2.07-1.72,2.07a2,2,0,0,1-1.86-1.82v-.09c0-.28-1.6-27.19-1.75-29.34A3.62,3.62,0,0,1,21.34,62a1.15,1.15,0,0,1,.83-.42H23A5,5,0,0,0,21,59.74a3.09,3.09,0,0,0-2.84.09C14,61.7,14.8,65,16.5,68.64A31.64,31.64,0,0,1,19,76.37a63.94,63.94,0,0,1,.76,8.18q.54,11,1.07,22H28Q27.84,92,27.67,77.58c0-.22,0-.44,0-.67a.41.41,0,0,0,0-.11c0-.86.07-1.67.14-2.44a2.22,2.22,0,0,1,1-1.19A2.38,2.38,0,0,0,30,71.63,2.92,2.92,0,0,0,29.65,69.64Z" transform="translate(0 13.12)"/><path class="cls-4" d="M88.91,59.06c-2.89-1.3-2.87,2-6,.38l-.36-.21a1.62,1.62,0,0,1-.76-1.29,5.42,5.42,0,0,0,.06-.58,4.89,4.89,0,1,0-7.32,4.21,5.94,5.94,0,0,1,2.08,1.89c.12.2.24.41.35.64l0,0h0c.09.19.19.38.28.59.84,1.9.9,3,.63,3.62a5,5,0,0,1-.48,1.29,2.9,2.9,0,0,0-.36,2,2.41,2.41,0,0,0,1.22,1.54,2.22,2.22,0,0,1,1,1.19c.07.77.12,1.58.14,2.44v.78c0,.56,0,1.11,0,1.67Q79.17,92.87,79,106.5h7.21q.57-11.35,1.15-22.72a63.78,63.78,0,0,1,.77-8.18,31.69,31.69,0,0,1,2.47-7.73C92.28,64.24,93.07,60.94,88.91,59.06Z" transform="translate(0 13.12)"/><path class="cls-1" d="M68.31,60.79a4.2,4.2,0,0,0-3.89-.25c-.76.39-1.39,1-2.15,1.44-.58.31-1.23.5-1.79.84a1.93,1.93,0,0,0-1,1.6A1.9,1.9,0,0,0,60,65.57a6.78,6.78,0,0,0,3.14,1.8,22.57,22.57,0,0,0,2.41.65,1.83,1.83,0,0,0,1.2,0,1.9,1.9,0,0,0,.67-.76,31.44,31.44,0,0,0,1.7-3.32,3,3,0,0,0,.35-1.8A2,2,0,0,0,68.31,60.79Z" transform="translate(0 13.12)"/><path class="cls-4" d="M92.41,25.6c-.89-2.09-3.08-3.37-5.14-4.51-3.08-1.69-6.3-3.43-9.86-3.6a9.58,9.58,0,0,0-4.32.83h0l-.45.22h0l-.42.23,0,0a3,3,0,0,0-.38.24l0,0-.34.25-.08.07a3.11,3.11,0,0,0-.28.23l-.12.12a2.09,2.09,0,0,0-.22.2l-.17.19-.15.16c-.1.12-.19.24-.28.37h0A29.25,29.25,0,0,1,70.69,34a5.49,5.49,0,0,1-.17.7v.05a5.23,5.23,0,0,1-1.07,1.86h0s7.34,4.53,1.48,12.43l-.3.4h0c-.12.16-.25.32-.38.47q-1.38,1.71-2.78,3.4a16.76,16.76,0,0,1-5.22,4.77,7.17,7.17,0,0,1-.69.3l-.11.05c-.22.09-.45.16-.67.23l-.14,0c-.23.07-.46.13-.7.18h-.08l-.7.14h-.08c-.24,0-.49.06-.73.09h-.14c-.24,0-.48,0-.73.06h-.11c-.26,0-.51,0-.77,0h0c-.26,0-.52,0-.78,0s-.81,0-1.21,0h0s-1.06-.07-1.06,1.44v5a6.16,6.16,0,0,0,2.87,1.59,26.63,26.63,0,0,1,8.91,5.31A6.13,6.13,0,0,0,68,74.39c2.34.48,4.13-1.89,5.2-3.92L75.59,66a2.39,2.39,0,0,0-.21-2.41A5.22,5.22,0,0,0,74,62.49a5.94,5.94,0,1,1,7.19-9.32.79.79,0,0,0,1.27-.25,11,11,0,0,0,.78-2.67c.21-1.53,0-3.09.23-4.62a4.26,4.26,0,0,1,2.69-3.58c1-.3,2.25-.07,3.12-.66a3.3,3.3,0,0,0,1.12-1.77,47.44,47.44,0,0,0,2.3-9.29A8.82,8.82,0,0,0,92.41,25.6ZM69.12,63.92a31.44,31.44,0,0,1-1.7,3.32,1.9,1.9,0,0,1-.67.76,1.83,1.83,0,0,1-1.2,0,22.57,22.57,0,0,1-2.41-.65A6.78,6.78,0,0,1,60,65.57a1.9,1.9,0,0,1-.54-1.15,1.93,1.93,0,0,1,1-1.6c.56-.34,1.21-.53,1.79-.84.76-.42,1.39-1,2.15-1.44a4.2,4.2,0,0,1,3.89.25,2,2,0,0,1,1.16,1.33A3,3,0,0,1,69.12,63.92Z" transform="translate(0 13.12)"/></g><path class="cls-4" d="M53.56,1a52.55,52.55,0,0,1,52.55,52.55h0A52.55,52.55,0,0,1,1,53.56H1A52.55,52.55,0,0,1,53.56,1m0-1a53.56,53.56,0,1,0,53.56,53.56A53.62,53.62,0,0,0,53.56,0Z" transform="translate(0 13.12)"/><path class="cls-3" d="M128.29,19.69h7.08a19.86,19.86,0,0,1,4.89.58,11,11,0,0,1,4,1.86A9.08,9.08,0,0,1,147,25.47a11.2,11.2,0,0,1,1,5,10.12,10.12,0,0,1-1,4.58,9.64,9.64,0,0,1-2.65,3.33,11.81,11.81,0,0,1-3.84,2,15.05,15.05,0,0,1-4.57.69h-7.72ZM133,36.77h2.45a13.38,13.38,0,0,0,3-.34,6.52,6.52,0,0,0,2.43-1.1,5.26,5.26,0,0,0,1.62-2,7.1,7.1,0,0,0,.59-3.07,5.89,5.89,0,0,0-.59-2.74A5.45,5.45,0,0,0,141,25.56a6.89,6.89,0,0,0-2.34-1.13,10.51,10.51,0,0,0-2.83-.38H133Z" transform="translate(0 13.12)"/><path class="cls-3" d="M150.69,26.41h4.54v2.36h.06a5.54,5.54,0,0,1,1.73-2,4.37,4.37,0,0,1,2.51-.68l.79,0a3.86,3.86,0,0,1,.72.12v4.15a6.89,6.89,0,0,0-.95-.23,6.17,6.17,0,0,0-1-.08,4.83,4.83,0,0,0-2.06.37,2.7,2.7,0,0,0-1.17,1,4,4,0,0,0-.53,1.56,15.36,15.36,0,0,0-.12,2v6.14h-4.54Z" transform="translate(0 13.12)"/><path class="cls-3" d="M160.32,38.52a2.86,2.86,0,0,1,.21-1.09A2.69,2.69,0,0,1,162,36a2.93,2.93,0,0,1,2.18,0,2.75,2.75,0,0,1,1.49,1.48,2.93,2.93,0,0,1,0,2.18,2.74,2.74,0,0,1-.6.89,2.57,2.57,0,0,1-.89.59,2.81,2.81,0,0,1-2.18,0,2.57,2.57,0,0,1-.89-.59,2.71,2.71,0,0,1-.59-.89A2.86,2.86,0,0,1,160.32,38.52Z" transform="translate(0 13.12)"/><path class="cls-3" d="M178.9,19.69h4.73V36.77h8.74v4.35H178.9Z" transform="translate(0 13.12)"/><path class="cls-3" d="M208.57,41.12h-4.36v-2h-.06a5,5,0,0,1-.62.84,3.85,3.85,0,0,1-.92.76,6,6,0,0,1-1.25.55,5.15,5.15,0,0,1-1.51.21,6.41,6.41,0,0,1-2.8-.53,4,4,0,0,1-1.66-1.47,5.65,5.65,0,0,1-.79-2.21,18.26,18.26,0,0,1-.2-2.76V26.41h4.54v7.21c0,.42,0,.86.05,1.31a4.15,4.15,0,0,0,.27,1.26,2.12,2.12,0,0,0,.7.94,2.16,2.16,0,0,0,1.34.36,2.75,2.75,0,0,0,1.43-.32,2.16,2.16,0,0,0,.83-.84,3.59,3.59,0,0,0,.38-1.2,10.36,10.36,0,0,0,.09-1.39V26.41h4.54Z" transform="translate(0 13.12)"/><path class="cls-3" d="M211.48,21.78A2.63,2.63,0,0,1,216,19.92a2.63,2.63,0,0,1,0,3.72,2.63,2.63,0,0,1-4.49-1.86Zm.36,4.63h4.54V41.12h-4.54Z" transform="translate(0 13.12)"/><path class="cls-3" d="M228,30.74a3.19,3.19,0,0,0-2.63-1.24,2.5,2.5,0,0,0-1.12.27,1,1,0,0,0-.55.94.85.85,0,0,0,.56.8,7.53,7.53,0,0,0,1.43.46l1.84.42a7,7,0,0,1,1.85.71,4.08,4.08,0,0,1,1.42,1.32,3.87,3.87,0,0,1,.56,2.22,4.09,4.09,0,0,1-.62,2.35,4.6,4.6,0,0,1-1.59,1.48,6.58,6.58,0,0,1-2.18.79,13,13,0,0,1-2.39.23,11.69,11.69,0,0,1-3.12-.44,5.78,5.78,0,0,1-2.66-1.56l2.76-3.06a4.47,4.47,0,0,0,1.4,1.2,3.85,3.85,0,0,0,1.8.41,4.29,4.29,0,0,0,1.43-.23.84.84,0,0,0,.63-.83.92.92,0,0,0-.56-.87,6.17,6.17,0,0,0-1.42-.48L223,35.21a7.67,7.67,0,0,1-1.84-.69,3.9,3.9,0,0,1-1.43-1.28,4,4,0,0,1-.56-2.23,4.55,4.55,0,0,1,.53-2.24,4.7,4.7,0,0,1,1.4-1.54,6,6,0,0,1,2-.89,8.67,8.67,0,0,1,2.27-.29,10.77,10.77,0,0,1,2.94.42A5.55,5.55,0,0,1,230.76,28Z" transform="translate(0 13.12)"/><path class="cls-3" d="M243.38,19.69h14.56v4.36H248.1v4h9.3v4.36h-9.3v4.36h10.39v4.35H243.38Z" transform="translate(0 13.12)"/><path class="cls-3" d="M261.7,26.41h4.35v2h.06a4.37,4.37,0,0,1,.61-.85,4.43,4.43,0,0,1,.94-.75,5,5,0,0,1,1.24-.55,5.2,5.2,0,0,1,1.51-.21,6.33,6.33,0,0,1,2.79.53,4,4,0,0,1,1.65,1.47,5.92,5.92,0,0,1,.8,2.21,16.79,16.79,0,0,1,.21,2.75v8.11h-4.54v-7.2c0-.42,0-.86,0-1.32a3.87,3.87,0,0,0-.28-1.25,2.12,2.12,0,0,0-.69-.94A2.19,2.19,0,0,0,269,30a2.82,2.82,0,0,0-1.42.32,2.12,2.12,0,0,0-.83.85,3.25,3.25,0,0,0-.38,1.2,10.25,10.25,0,0,0-.09,1.39v7.32H261.7Z" transform="translate(0 13.12)"/><path class="cls-3" d="M279.07,26.41h4.54v2.36h.06a5.54,5.54,0,0,1,1.73-2,4.37,4.37,0,0,1,2.51-.68c.26,0,.53,0,.79,0a3.86,3.86,0,0,1,.72.12v4.15a6.89,6.89,0,0,0-.95-.23,6.17,6.17,0,0,0-1-.08,4.83,4.83,0,0,0-2.06.37,2.76,2.76,0,0,0-1.17,1,4,4,0,0,0-.53,1.56,15.36,15.36,0,0,0-.12,2v6.14h-4.54Z" transform="translate(0 13.12)"/><path class="cls-3" d="M291.09,21.78a2.63,2.63,0,0,1,2.63-2.63,2.62,2.62,0,0,1,1.86,4.49,2.5,2.5,0,0,1-1.86.77,2.63,2.63,0,0,1-2.63-2.63Zm.36,4.63H296V41.12h-4.54Z" transform="translate(0 13.12)"/><path class="cls-3" d="M314.7,48h-4.54V39.55h-.06a4.25,4.25,0,0,1-2,1.5,7.88,7.88,0,0,1-2.65.44,6,6,0,0,1-2.82-.65,6.57,6.57,0,0,1-2.1-1.74,8,8,0,0,1-1.33-2.5,9.07,9.07,0,0,1-.47-3,8.85,8.85,0,0,1,.51-3.06,7,7,0,0,1,1.47-2.41A6.68,6.68,0,0,1,303,26.61a7.58,7.58,0,0,1,3-.56,5.12,5.12,0,0,1,1.47.21,5.84,5.84,0,0,1,1.3.55,4.76,4.76,0,0,1,1,.74,5,5,0,0,1,.71.8h.06V26.41h4.18Zm-4.18-14.26a3.81,3.81,0,0,0-.95-2.7,4,4,0,0,0-5.36,0,3.85,3.85,0,0,0-.95,2.7,3.81,3.81,0,0,0,.95,2.69,4,4,0,0,0,5.36,0A3.76,3.76,0,0,0,310.52,33.77Z" transform="translate(0 13.12)"/><path class="cls-3" d="M332.5,41.12h-4.36v-2h-.06a5,5,0,0,1-.62.84,3.85,3.85,0,0,1-.92.76,6.12,6.12,0,0,1-1.24.55,5.27,5.27,0,0,1-1.52.21A6.41,6.41,0,0,1,321,41a4,4,0,0,1-1.66-1.47,5.65,5.65,0,0,1-.79-2.21,18.26,18.26,0,0,1-.2-2.76V26.41h4.54v7.21c0,.42,0,.86.05,1.31a4.15,4.15,0,0,0,.27,1.26,2.2,2.2,0,0,0,.7.94,2.16,2.16,0,0,0,1.34.36,2.75,2.75,0,0,0,1.43-.32,2.16,2.16,0,0,0,.83-.84,3.59,3.59,0,0,0,.38-1.2,10.36,10.36,0,0,0,.09-1.39V26.41h4.54Z" transform="translate(0 13.12)"/><path class="cls-3" d="M349.63,38.58a7.12,7.12,0,0,1-2.75,2.15,8.17,8.17,0,0,1-3.45.76,9.16,9.16,0,0,1-3.2-.55,7.68,7.68,0,0,1-2.6-1.56A7.11,7.11,0,0,1,335.89,37a8.22,8.22,0,0,1,0-6.36,7.25,7.25,0,0,1,1.74-2.44,8,8,0,0,1,2.6-1.56,9.39,9.39,0,0,1,3.2-.54,7.33,7.33,0,0,1,2.86.54,6.13,6.13,0,0,1,2.18,1.56,7.35,7.35,0,0,1,1.38,2.44,9.92,9.92,0,0,1,.48,3.18v1.42H339.8A3.53,3.53,0,0,0,341,37.26a3.3,3.3,0,0,0,2.24.78,3.46,3.46,0,0,0,1.89-.5,5.32,5.32,0,0,0,1.35-1.29Zm-3.84-6.48a2.6,2.6,0,0,0-.76-2,2.67,2.67,0,0,0-2-.82,3.47,3.47,0,0,0-1.33.24,3.35,3.35,0,0,0-1,.62,2.77,2.77,0,0,0-.64.88,2.88,2.88,0,0,0-.25,1Z" transform="translate(0 13.12)"/><path class="cls-3" d="M140.69,67.86a17,17,0,0,1-4.36,1.58,22.41,22.41,0,0,1-4.64.48,13.35,13.35,0,0,1-4.63-.78,10.69,10.69,0,0,1-3.66-2.26A10.24,10.24,0,0,1,121,63.32,13.06,13.06,0,0,1,121,54a10.34,10.34,0,0,1,2.41-3.56,10.52,10.52,0,0,1,3.66-2.25,13.12,13.12,0,0,1,4.63-.79,17.26,17.26,0,0,1,4.74.62,9.26,9.26,0,0,1,3.8,2.14l-3.33,3.63a6.61,6.61,0,0,0-2.18-1.52,7.82,7.82,0,0,0-3-.51,7,7,0,0,0-2.73.51,6.38,6.38,0,0,0-2.11,1.44,6.56,6.56,0,0,0-1.35,2.2,8.34,8.34,0,0,0,0,5.52,6.47,6.47,0,0,0,1.35,2.18A6.09,6.09,0,0,0,129,65.05a7,7,0,0,0,2.73.51,9.17,9.17,0,0,0,2.67-.34,9.7,9.7,0,0,0,1.78-.72V61H132.3V56.66h8.39Z" transform="translate(0 13.12)"/><path class="cls-3" d="M158.42,69.38h-4.35v-2H154a4.57,4.57,0,0,1-.62.85,4.07,4.07,0,0,1-.92.75,5,5,0,0,1-1.24.55,5.2,5.2,0,0,1-1.51.21,6.38,6.38,0,0,1-2.8-.53,3.93,3.93,0,0,1-1.67-1.47,5.92,5.92,0,0,1-.79-2.21,18.09,18.09,0,0,1-.19-2.75V54.67h4.54v7.2c0,.42,0,.86,0,1.32a3.87,3.87,0,0,0,.28,1.25,2.12,2.12,0,0,0,.69.94,2.17,2.17,0,0,0,1.35.37,2.82,2.82,0,0,0,1.42-.32,2.12,2.12,0,0,0,.83-.85,3.25,3.25,0,0,0,.38-1.2,10.25,10.25,0,0,0,.09-1.39V54.67h4.54Z" transform="translate(0 13.12)"/><path class="cls-3" d="M170.87,67.53h-.06a4.33,4.33,0,0,1-2,1.7,7,7,0,0,1-4.63.22,5,5,0,0,1-1.68-.86,4.19,4.19,0,0,1-1.15-1.42,5,5,0,0,1,0-4.12,4.12,4.12,0,0,1,1.27-1.45,6.25,6.25,0,0,1,1.83-.9,13.43,13.43,0,0,1,2.13-.46,20.81,20.81,0,0,1,2.21-.19l2.05,0A2.37,2.37,0,0,0,170,58.1a3.11,3.11,0,0,0-2-.71,4.44,4.44,0,0,0-2,.47,5.36,5.36,0,0,0-1.65,1.29l-2.43-2.49a8.57,8.57,0,0,1,3-1.77,10.69,10.69,0,0,1,3.51-.59,9.26,9.26,0,0,1,3.29.5,4.74,4.74,0,0,1,2.06,1.47,5.72,5.72,0,0,1,1.07,2.38,15.64,15.64,0,0,1,.3,3.25v7.48h-4.17Zm-1.12-4.6c-.35,0-.78,0-1.29,0a6.45,6.45,0,0,0-1.48.25,3.25,3.25,0,0,0-1.21.64,1.43,1.43,0,0,0-.5,1.18,1.3,1.3,0,0,0,.69,1.21,3,3,0,0,0,1.45.39,4.57,4.57,0,0,0,1.29-.18,3.89,3.89,0,0,0,1.11-.51,2.51,2.51,0,0,0,.77-.85,2.46,2.46,0,0,0,.29-1.21v-1Z" transform="translate(0 13.12)"/><path class="cls-3" d="M193.33,69.38h-4.18V67.44h-.06A5.28,5.28,0,0,1,187.35,69a5.84,5.84,0,0,1-1.3.55,5.22,5.22,0,0,1-1.47.21,7.67,7.67,0,0,1-3-.56,6.55,6.55,0,0,1-2.28-1.57,7,7,0,0,1-1.47-2.41,8.85,8.85,0,0,1-.52-3.06,9.35,9.35,0,0,1,.47-3,8.23,8.23,0,0,1,1.34-2.5,6.57,6.57,0,0,1,2.1-1.74,6,6,0,0,1,2.81-.65,7.84,7.84,0,0,1,2.65.44,4.23,4.23,0,0,1,2,1.5h.06V46.49h4.54ZM189.15,62a3.81,3.81,0,0,0-1-2.69,4,4,0,0,0-5.36,0,3.77,3.77,0,0,0-1,2.69,3.81,3.81,0,0,0,1,2.7,4,4,0,0,0,5.36,0A3.85,3.85,0,0,0,189.15,62Z" transform="translate(0 13.12)"/><path class="cls-3" d="M206.19,67.53h-.06a4.26,4.26,0,0,1-2,1.7,7,7,0,0,1-2.65.51,6.82,6.82,0,0,1-2-.29,5,5,0,0,1-1.68-.86,4.08,4.08,0,0,1-1.15-1.42,4.27,4.27,0,0,1-.43-2,4.55,4.55,0,0,1,.47-2.15A4.33,4.33,0,0,1,198,61.6a6.44,6.44,0,0,1,1.84-.9,13.19,13.19,0,0,1,2.13-.46,20.59,20.59,0,0,1,2.21-.19l2,0a2.36,2.36,0,0,0-.86-1.92,3.15,3.15,0,0,0-2-.71,4.51,4.51,0,0,0-2,.47,5.61,5.61,0,0,0-1.65,1.29l-2.42-2.49a8.57,8.57,0,0,1,3-1.77,10.69,10.69,0,0,1,3.51-.59,9.2,9.2,0,0,1,3.28.5A4.69,4.69,0,0,1,209,56.27a5.61,5.61,0,0,1,1.08,2.38,15.64,15.64,0,0,1,.3,3.25v7.48h-4.18Zm-1.12-4.6c-.34,0-.77,0-1.28,0a6.63,6.63,0,0,0-1.49.25,3.33,3.33,0,0,0-1.21.64,1.46,1.46,0,0,0-.5,1.18,1.29,1.29,0,0,0,.7,1.21,2.92,2.92,0,0,0,1.45.39,4.62,4.62,0,0,0,1.29-.18,3.83,3.83,0,0,0,1.1-.51,2.54,2.54,0,0,0,.78-.85,2.46,2.46,0,0,0,.28-1.21v-1Z" transform="translate(0 13.12)"/><path class="cls-3" d="M213.28,46.49h4.54V69.38h-4.54Z" transform="translate(0 13.12)"/><path class="cls-3" d="M235.25,69.38h-4.36v-2h-.06a5.08,5.08,0,0,1-.62.85,4.07,4.07,0,0,1-.92.75,5,5,0,0,1-1.24.55,5.25,5.25,0,0,1-1.51.21,6.43,6.43,0,0,1-2.81-.53,4,4,0,0,1-1.66-1.47,5.75,5.75,0,0,1-.79-2.21,18.09,18.09,0,0,1-.19-2.75V54.67h4.54v7.2c0,.42,0,.86,0,1.32a4.15,4.15,0,0,0,.27,1.25,2.22,2.22,0,0,0,.7.94,2.17,2.17,0,0,0,1.35.37,2.82,2.82,0,0,0,1.42-.32,2.18,2.18,0,0,0,.83-.85,3.45,3.45,0,0,0,.38-1.2,10.25,10.25,0,0,0,.09-1.39V54.67h4.54Z" transform="translate(0 13.12)"/><path class="cls-3" d="M238.89,54.67h4.17V56.6h.06a5.14,5.14,0,0,1,.72-.8,5.35,5.35,0,0,1,1-.74,7.47,7.47,0,0,1,1.29-.55,5.09,5.09,0,0,1,1.48-.21,7.67,7.67,0,0,1,3,.56,6.71,6.71,0,0,1,2.29,1.58,7,7,0,0,1,1.46,2.4,8.62,8.62,0,0,1,.52,3.06,9.35,9.35,0,0,1-.47,2.95,8.2,8.2,0,0,1-1.33,2.5A6.46,6.46,0,0,1,251,69.09a6,6,0,0,1-2.81.65,7.88,7.88,0,0,1-2.65-.44,4.16,4.16,0,0,1-2-1.5h-.06v8.48h-4.54ZM243.06,62a3.81,3.81,0,0,0,1,2.7,4,4,0,0,0,5.36,0,3.85,3.85,0,0,0,1-2.7,3.81,3.81,0,0,0-1-2.69,4,4,0,0,0-5.36,0A3.77,3.77,0,0,0,243.06,62Z" transform="translate(0 13.12)"/><path class="cls-3" d="M271.46,66.84A7.3,7.3,0,0,1,268.7,69a8.17,8.17,0,0,1-3.45.76,9.33,9.33,0,0,1-3.19-.54,7.81,7.81,0,0,1-2.6-1.56,7.42,7.42,0,0,1-1.75-2.44,8.34,8.34,0,0,1,0-6.36,7.28,7.28,0,0,1,1.75-2.43,7.49,7.49,0,0,1,2.6-1.56,9.1,9.1,0,0,1,3.19-.55,7.15,7.15,0,0,1,2.86.55,5.82,5.82,0,0,1,2.18,1.56,6.89,6.89,0,0,1,1.38,2.43,9.92,9.92,0,0,1,.48,3.18v1.42H261.62a3.59,3.59,0,0,0,1.18,2.08,3.37,3.37,0,0,0,2.24.77,3.41,3.41,0,0,0,1.89-.5,4.86,4.86,0,0,0,1.35-1.29Zm-3.85-6.48a2.64,2.64,0,0,0-.75-2,2.68,2.68,0,0,0-2-.82,3.4,3.4,0,0,0-1.33.24,3.62,3.62,0,0,0-1,.62,2.85,2.85,0,0,0-.63.88,3,3,0,0,0-.26,1Z" transform="translate(0 13.12)"/><path class="cls-3" d="M284.44,48h8.3a14.75,14.75,0,0,1,3.1.31,7.52,7.52,0,0,1,2.57,1.06,5.26,5.26,0,0,1,1.76,2,6.81,6.81,0,0,1,.65,3.13,6.26,6.26,0,0,1-1.18,3.86,5.36,5.36,0,0,1-3.45,2l5.45,9H296l-4.48-8.57h-2.33v8.57h-4.73Zm4.73,8.86H292c.42,0,.87,0,1.35,0a4.21,4.21,0,0,0,1.28-.27,2.26,2.26,0,0,0,1-.71,2.3,2.3,0,0,0-.8-3.41,3.87,3.87,0,0,0-1.18-.35,9.84,9.84,0,0,0-1.31-.09h-3.08Z" transform="translate(0 13.12)"/><path class="cls-3" d="M302.94,62a7.62,7.62,0,0,1,.64-3.18,7.11,7.11,0,0,1,1.74-2.43,7.49,7.49,0,0,1,2.6-1.56,9.56,9.56,0,0,1,6.39,0,7.58,7.58,0,0,1,2.6,1.56,7.11,7.11,0,0,1,1.74,2.43,8.22,8.22,0,0,1,0,6.36,7.25,7.25,0,0,1-1.74,2.44,7.91,7.91,0,0,1-2.6,1.56,9.72,9.72,0,0,1-6.39,0,7.81,7.81,0,0,1-2.6-1.56,7.25,7.25,0,0,1-1.74-2.44A7.62,7.62,0,0,1,302.94,62Zm4.54,0a3.85,3.85,0,0,0,.95,2.7,4,4,0,0,0,5.36,0,3.81,3.81,0,0,0,1-2.7,3.77,3.77,0,0,0-1-2.69,4,4,0,0,0-5.36,0A3.81,3.81,0,0,0,307.48,62Z" transform="translate(0 13.12)"/><path class="cls-3" d="M326.55,70.47a11.11,11.11,0,0,1-.27,2.56,4.8,4.8,0,0,1-.91,1.93,4,4,0,0,1-1.68,1.24,6.58,6.58,0,0,1-2.59.44c-.34,0-.69,0-1.06,0a5.5,5.5,0,0,1-1.06-.2l.25-4a2.59,2.59,0,0,0,1.18.27,1.25,1.25,0,0,0,.9-.31,1.67,1.67,0,0,0,.49-.75,3.79,3.79,0,0,0,.18-1c0-.34,0-.66,0-.94v-15h4.54ZM321.65,50a2.63,2.63,0,1,1,.77,1.87A2.53,2.53,0,0,1,321.65,50Z" transform="translate(0 13.12)"/><path class="cls-3" d="M339.05,67.53H339a4.26,4.26,0,0,1-2,1.7,7,7,0,0,1-2.65.51,6.87,6.87,0,0,1-2-.29,5,5,0,0,1-1.68-.86,4.08,4.08,0,0,1-1.15-1.42,4.4,4.4,0,0,1-.43-2,4.55,4.55,0,0,1,.47-2.15,4.33,4.33,0,0,1,1.27-1.45,6.44,6.44,0,0,1,1.84-.9,13.19,13.19,0,0,1,2.13-.46,20.59,20.59,0,0,1,2.21-.19l2,0a2.36,2.36,0,0,0-.86-1.92,3.13,3.13,0,0,0-2-.71,4.51,4.51,0,0,0-2,.47,5.61,5.61,0,0,0-1.65,1.29L330,56.66a8.57,8.57,0,0,1,3-1.77,10.69,10.69,0,0,1,3.51-.59,9.3,9.3,0,0,1,3.29.5,4.71,4.71,0,0,1,2.05,1.47,5.61,5.61,0,0,1,1.08,2.38,15.64,15.64,0,0,1,.3,3.25v7.48h-4.18Zm-1.12-4.6c-.34,0-.77,0-1.28,0a6.63,6.63,0,0,0-1.49.25,3.42,3.42,0,0,0-1.21.64,1.46,1.46,0,0,0-.5,1.18,1.31,1.31,0,0,0,.7,1.21,2.92,2.92,0,0,0,1.45.39,4.57,4.57,0,0,0,1.29-.18A3.83,3.83,0,0,0,338,66a2.54,2.54,0,0,0,.78-.85,2.46,2.46,0,0,0,.28-1.21v-1Z" transform="translate(0 13.12)"/><path class="cls-3" d="M354.4,59a3.23,3.23,0,0,0-2.63-1.24,2.35,2.35,0,0,0-1.12.28,1,1,0,0,0-.55.93.85.85,0,0,0,.56.81,7.59,7.59,0,0,0,1.43.45l1.84.42a7,7,0,0,1,1.85.72,4.14,4.14,0,0,1,1.42,1.31,4,4,0,0,1,.56,2.23,4.11,4.11,0,0,1-.62,2.34,4.73,4.73,0,0,1-1.59,1.49,6.8,6.8,0,0,1-2.18.78,12.24,12.24,0,0,1-2.39.23,11.69,11.69,0,0,1-3.12-.44,5.78,5.78,0,0,1-2.66-1.56l2.75-3a4.71,4.71,0,0,0,1.41,1.19,3.85,3.85,0,0,0,1.8.41,4.19,4.19,0,0,0,1.42-.23.83.83,0,0,0,.64-.83.93.93,0,0,0-.56-.86,6.66,6.66,0,0,0-1.42-.49l-1.85-.42a7.72,7.72,0,0,1-1.85-.68,3.81,3.81,0,0,1-1.42-1.29,3.92,3.92,0,0,1-.56-2.22,4.5,4.5,0,0,1,.53-2.24,4.71,4.71,0,0,1,1.39-1.55,6.11,6.11,0,0,1,2-.89,9.12,9.12,0,0,1,2.27-.29,10.34,10.34,0,0,1,2.93.43,5.43,5.43,0,0,1,2.52,1.51Z" transform="translate(0 13.12)"/><path class="cls-7" d="M122.66,79.29h-2.53v-1h6.11v1h-2.52v6.84h-1.06Z" transform="translate(0 13.12)"/><path class="cls-7" d="M126.1,80.89h1v.8h0a1.35,1.35,0,0,1,.26-.38,2.06,2.06,0,0,1,.37-.29,2.28,2.28,0,0,1,.45-.2,2.07,2.07,0,0,1,.49-.07,1.23,1.23,0,0,1,.44.07l0,1.07-.25,0a1,1,0,0,0-.24,0,1.45,1.45,0,0,0-1.12.42,1.77,1.77,0,0,0-.39,1.27v2.63h-1Z" transform="translate(0 13.12)"/><path class="cls-7" d="M130.22,81.53a2.73,2.73,0,0,1,1-.58,3.34,3.34,0,0,1,1.11-.2,3,3,0,0,1,1,.15,1.86,1.86,0,0,1,.68.38,1.5,1.5,0,0,1,.39.56,1.65,1.65,0,0,1,.13.66v2.68c0,.19,0,.36,0,.51s0,.3,0,.44h-.88c0-.26,0-.53,0-.79h0a1.9,1.9,0,0,1-.78.72,2.52,2.52,0,0,1-1.05.21,2.63,2.63,0,0,1-.7-.1,1.77,1.77,0,0,1-.58-.3,1.57,1.57,0,0,1-.4-.49,1.67,1.67,0,0,1-.14-.69,1.44,1.44,0,0,1,.23-.85,1.77,1.77,0,0,1,.62-.56,2.93,2.93,0,0,1,.92-.31,6.6,6.6,0,0,1,1.12-.09h.73v-.22a1.1,1.1,0,0,0-.08-.4,1.05,1.05,0,0,0-.23-.36,1.11,1.11,0,0,0-.39-.26,1.51,1.51,0,0,0-.55-.09,2.41,2.41,0,0,0-.5,0,3.09,3.09,0,0,0-.4.14,1.73,1.73,0,0,0-.32.2l-.28.21ZM133,83.61a6.06,6.06,0,0,0-.73,0,2.35,2.35,0,0,0-.67.15,1.15,1.15,0,0,0-.5.31.69.69,0,0,0-.19.51.72.72,0,0,0,.3.65,1.52,1.52,0,0,0,.83.2,1.6,1.6,0,0,0,.69-.14,1.31,1.31,0,0,0,.47-.36,1.34,1.34,0,0,0,.25-.49,2,2,0,0,0,.08-.54v-.33Z" transform="translate(0 13.12)"/><path class="cls-7" d="M140.59,86.13h-1v-.8h0a1.46,1.46,0,0,1-.65.68,2.2,2.2,0,0,1-1.07.26,2.25,2.25,0,0,1-.74-.12,1.75,1.75,0,0,1-.6-.36,1.68,1.68,0,0,1-.41-.63,2.23,2.23,0,0,1-.16-.9V80.89h1V84a1.65,1.65,0,0,0,.1.62,1.11,1.11,0,0,0,.26.42.89.89,0,0,0,.38.23,1.42,1.42,0,0,0,.45.08,1.81,1.81,0,0,0,.58-.1,1.23,1.23,0,0,0,.46-.32,1.34,1.34,0,0,0,.31-.55,2.3,2.3,0,0,0,.11-.78v-2.7h1Z" transform="translate(0 13.12)"/><path class="cls-7" d="M142.1,80.89H143v.81h0a.88.88,0,0,1,.17-.27,1.64,1.64,0,0,1,.36-.32,2.12,2.12,0,0,1,.5-.25,2,2,0,0,1,.65-.11,1.82,1.82,0,0,1,1,.25,1.8,1.8,0,0,1,.65.73,1.64,1.64,0,0,1,.72-.73,1.92,1.92,0,0,1,.94-.25,2.22,2.22,0,0,1,1,.2,1.58,1.58,0,0,1,.61.53,2,2,0,0,1,.3.74,4,4,0,0,1,.08.86v3h-1V83.21a5.46,5.46,0,0,0,0-.58,1.43,1.43,0,0,0-.16-.48.92.92,0,0,0-.34-.34,1.15,1.15,0,0,0-.59-.13,1.16,1.16,0,0,0-1,.45,1.9,1.9,0,0,0-.31,1.14v2.86h-1V83.39a4.93,4.93,0,0,0,0-.69,1.48,1.48,0,0,0-.15-.54.86.86,0,0,0-.33-.35,1.12,1.12,0,0,0-.59-.13,1.34,1.34,0,0,0-.51.11,1.22,1.22,0,0,0-.44.31,1.73,1.73,0,0,0-.3.54,2.51,2.51,0,0,0-.11.77v2.72h-1Z" transform="translate(0 13.12)"/><path class="cls-7" d="M151.55,81.53a2.77,2.77,0,0,1,1-.58,3.28,3.28,0,0,1,1.1-.2,2.87,2.87,0,0,1,1,.15,1.9,1.9,0,0,1,.69.38,1.77,1.77,0,0,1,.39.56,1.85,1.85,0,0,1,.13.66v2.68c0,.19,0,.36,0,.51s0,.3,0,.44H155c0-.26,0-.53,0-.79h0a1.86,1.86,0,0,1-.79.72,2.46,2.46,0,0,1-1,.21,2.69,2.69,0,0,1-.7-.1,1.88,1.88,0,0,1-.58-.3,1.47,1.47,0,0,1-.54-1.18,1.52,1.52,0,0,1,.23-.85,1.77,1.77,0,0,1,.62-.56A3,3,0,0,1,153,83a6.69,6.69,0,0,1,1.12-.09h.74v-.22a1.1,1.1,0,0,0-.08-.4,1.05,1.05,0,0,0-.23-.36,1.33,1.33,0,0,0-.39-.26,1.57,1.57,0,0,0-.56-.09,2.49,2.49,0,0,0-.5,0,3.54,3.54,0,0,0-.39.14,1.45,1.45,0,0,0-.32.2l-.28.21Zm2.81,2.08a6,6,0,0,0-.72,0,2.42,2.42,0,0,0-.68.15,1.12,1.12,0,0,0-.49.31.69.69,0,0,0-.2.51.7.7,0,0,0,.31.65,1.48,1.48,0,0,0,.82.2,1.65,1.65,0,0,0,.7-.14,1.19,1.19,0,0,0,.46-.36,1.37,1.37,0,0,0,.26-.49,2,2,0,0,0,.08-.54v-.33Z" transform="translate(0 13.12)"/><path class="cls-7" d="M160.09,81.75h-1.43v2.38c0,.15,0,.29,0,.44a1.42,1.42,0,0,0,.08.38.63.63,0,0,0,.23.28.74.74,0,0,0,.43.11,1.61,1.61,0,0,0,.37,0,1,1,0,0,0,.34-.12v.91a1.32,1.32,0,0,1-.46.14l-.43,0a2.13,2.13,0,0,1-.9-.16,1.11,1.11,0,0,1-.46-.42,1.36,1.36,0,0,1-.18-.57c0-.21,0-.42,0-.64V81.75h-1.15v-.86h1.15V79.41h1v1.48h1.43Z" transform="translate(0 13.12)"/><path class="cls-7" d="M161.12,83.51a2.72,2.72,0,0,1,.21-1.07,2.86,2.86,0,0,1,.6-.88,2.67,2.67,0,0,1,.88-.59,2.7,2.7,0,0,1,1.1-.22A2.66,2.66,0,0,1,165,81a2.71,2.71,0,0,1,.89.59,2.67,2.67,0,0,1,.59.88,2.56,2.56,0,0,1,.22,1.07,2.74,2.74,0,0,1-.81,1.95,2.71,2.71,0,0,1-.89.59,2.83,2.83,0,0,1-1.09.22,2.88,2.88,0,0,1-1.1-.22,2.67,2.67,0,0,1-.88-.59,2.64,2.64,0,0,1-.81-1.95Zm1.06,0a2.21,2.21,0,0,0,.12.74,1.65,1.65,0,0,0,.35.57,1.43,1.43,0,0,0,.54.38,1.81,1.81,0,0,0,.72.14,1.89,1.89,0,0,0,.72-.14,1.6,1.6,0,0,0,.54-.38,1.63,1.63,0,0,0,.34-.57,2.17,2.17,0,0,0,0-1.48,1.63,1.63,0,0,0-.34-.57,1.6,1.6,0,0,0-.54-.38,1.89,1.89,0,0,0-.72-.14,1.81,1.81,0,0,0-.72.14,1.43,1.43,0,0,0-.54.38,1.65,1.65,0,0,0-.35.57A2.21,2.21,0,0,0,162.18,83.51Z" transform="translate(0 13.12)"/><path class="cls-7" d="M168,77.76h1v8.37h-1Z" transform="translate(0 13.12)"/><path class="cls-7" d="M170.35,83.51a2.56,2.56,0,0,1,.22-1.07,2.67,2.67,0,0,1,.59-.88,2.71,2.71,0,0,1,.89-.59,2.66,2.66,0,0,1,1.09-.22,2.7,2.7,0,0,1,1.1.22,2.67,2.67,0,0,1,.88.59,2.86,2.86,0,0,1,.6.88,2.72,2.72,0,0,1,.21,1.07,2.64,2.64,0,0,1-.81,1.95,2.67,2.67,0,0,1-.88.59,2.88,2.88,0,0,1-1.1.22,2.83,2.83,0,0,1-1.09-.22,2.71,2.71,0,0,1-.89-.59,2.74,2.74,0,0,1-.81-1.95Zm1.06,0a2.21,2.21,0,0,0,.13.74,1.63,1.63,0,0,0,.34.57,1.6,1.6,0,0,0,.54.38,1.89,1.89,0,0,0,.72.14,1.81,1.81,0,0,0,.72-.14,1.43,1.43,0,0,0,.54-.38,1.65,1.65,0,0,0,.35-.57,2.34,2.34,0,0,0,0-1.48,1.65,1.65,0,0,0-.35-.57,1.43,1.43,0,0,0-.54-.38,1.81,1.81,0,0,0-.72-.14,1.89,1.89,0,0,0-.72.14,1.6,1.6,0,0,0-.54.38,1.63,1.63,0,0,0-.34.57A2.21,2.21,0,0,0,171.41,83.51Z" transform="translate(0 13.12)"/><path class="cls-7" d="M182.44,86.09a2.94,2.94,0,0,1-.2,1.09,2.52,2.52,0,0,1-.58.85,2.73,2.73,0,0,1-.91.56,3.44,3.44,0,0,1-1.18.2,4.24,4.24,0,0,1-1.37-.21,3.2,3.2,0,0,1-1.19-.73l.67-.84a2.72,2.72,0,0,0,.84.63,2.29,2.29,0,0,0,1,.22,2.23,2.23,0,0,0,.92-.16,1.61,1.61,0,0,0,.58-.42,1.42,1.42,0,0,0,.31-.58,2.39,2.39,0,0,0,.09-.66v-.77h0a1.71,1.71,0,0,1-.78.7,2.46,2.46,0,0,1-1,.23,2.69,2.69,0,0,1-1.07-.21,2.47,2.47,0,0,1-1.4-1.41,2.72,2.72,0,0,1-.2-1.07,3,3,0,0,1,.19-1.08,2.53,2.53,0,0,1,.53-.88,2.61,2.61,0,0,1,.84-.59,2.82,2.82,0,0,1,1.11-.21,2.49,2.49,0,0,1,1,.23,1.91,1.91,0,0,1,.79.66h0v-.75h1Zm-2.72-4.41a1.81,1.81,0,0,0-.72.14,1.43,1.43,0,0,0-.54.38,1.65,1.65,0,0,0-.35.57,2.21,2.21,0,0,0-.12.74,1.77,1.77,0,0,0,.47,1.28,1.89,1.89,0,0,0,2.52,0,1.77,1.77,0,0,0,.47-1.28,2.21,2.21,0,0,0-.13-.74,1.63,1.63,0,0,0-.34-.57,1.6,1.6,0,0,0-.54-.38A1.89,1.89,0,0,0,179.72,81.68Z" transform="translate(0 13.12)"/><path class="cls-7" d="M184.94,78.29h1.42l-1.65,1.6h-.92Zm-.91,2.6h1v5.24h-1Z" transform="translate(0 13.12)"/><path class="cls-7" d="M186.63,81.53a2.73,2.73,0,0,1,1-.58,3.34,3.34,0,0,1,1.11-.2,3,3,0,0,1,1,.15,1.86,1.86,0,0,1,.68.38,1.5,1.5,0,0,1,.39.56,1.65,1.65,0,0,1,.13.66v2.68c0,.19,0,.36,0,.51s0,.3,0,.44h-.89c0-.26,0-.53,0-.79h0a1.9,1.9,0,0,1-.78.72,2.49,2.49,0,0,1-1.05.21,2.63,2.63,0,0,1-.7-.1,1.77,1.77,0,0,1-.58-.3,1.57,1.57,0,0,1-.4-.49,1.67,1.67,0,0,1-.14-.69,1.52,1.52,0,0,1,.23-.85,1.69,1.69,0,0,1,.62-.56,3,3,0,0,1,.92-.31,6.6,6.6,0,0,1,1.12-.09H190v-.22a1.1,1.1,0,0,0-.08-.4,1.05,1.05,0,0,0-.23-.36,1.11,1.11,0,0,0-.39-.26,1.51,1.51,0,0,0-.55-.09,2.41,2.41,0,0,0-.5,0,3.09,3.09,0,0,0-.4.14,1.73,1.73,0,0,0-.32.2l-.28.21Zm2.81,2.08a6.06,6.06,0,0,0-.73,0,2.35,2.35,0,0,0-.67.15,1.21,1.21,0,0,0-.5.31.69.69,0,0,0-.19.51.72.72,0,0,0,.3.65,1.52,1.52,0,0,0,.83.2,1.6,1.6,0,0,0,.69-.14,1.23,1.23,0,0,0,.47-.36,1.34,1.34,0,0,0,.25-.49,2,2,0,0,0,.08-.54v-.33Z" transform="translate(0 13.12)"/><path class="cls-7" d="M194.81,80.89H196L197.51,85h0L199,80.89h1.06l-2.49,6.37a6.24,6.24,0,0,1-.28.63,1.72,1.72,0,0,1-.34.48,1.33,1.33,0,0,1-.48.31,2,2,0,0,1-.69.11l-.44,0a1.58,1.58,0,0,1-.44-.11l.12-.91a1.61,1.61,0,0,0,.6.12,1.14,1.14,0,0,0,.39-.06.8.8,0,0,0,.27-.18,1,1,0,0,0,.19-.27c.05-.1.11-.22.16-.35l.32-.83Z" transform="translate(0 13.12)"/><path class="cls-7" d="M207.9,86.33a4.22,4.22,0,0,1-1.65-.31,3.67,3.67,0,0,1-1.29-.87,4.17,4.17,0,0,1-.85-1.31,4.55,4.55,0,0,1,0-3.25,4.06,4.06,0,0,1,.85-1.31,3.67,3.67,0,0,1,1.29-.87,4.22,4.22,0,0,1,1.65-.32,4.29,4.29,0,0,1,1.65.32,3.86,3.86,0,0,1,1.29.87,4.21,4.21,0,0,1,.84,1.31,4.29,4.29,0,0,1-.84,4.56,3.86,3.86,0,0,1-1.29.87A4.29,4.29,0,0,1,207.9,86.33Zm0-1a2.94,2.94,0,0,0,1.21-.25,2.78,2.78,0,0,0,.93-.67,2.92,2.92,0,0,0,.6-1,3.62,3.62,0,0,0,0-2.43,2.92,2.92,0,0,0-.6-1,2.85,2.85,0,0,0-2.14-.92,2.83,2.83,0,0,0-1.22.25,3,3,0,0,0-.93.67,2.92,2.92,0,0,0-.6,1,3.62,3.62,0,0,0,0,2.43,2.92,2.92,0,0,0,.6,1,2.85,2.85,0,0,0,2.15.92Z" transform="translate(0 13.12)"/><path class="cls-7" d="M213.26,80.89h1v.8h0a1.65,1.65,0,0,1,.27-.38,1.76,1.76,0,0,1,.37-.29,2.28,2.28,0,0,1,.45-.2,2,2,0,0,1,.49-.07,1.23,1.23,0,0,1,.44.07l0,1.07-.24,0a1,1,0,0,0-.24,0,1.45,1.45,0,0,0-1.12.42,1.77,1.77,0,0,0-.39,1.27v2.63h-1Z" transform="translate(0 13.12)"/><path class="cls-7" d="M220.16,81.75h-1.42v2.38c0,.15,0,.29,0,.44a.92.92,0,0,0,.08.38.62.62,0,0,0,.22.28.77.77,0,0,0,.44.11,1.47,1.47,0,0,0,.36,0,1,1,0,0,0,.35-.12v.91a1.32,1.32,0,0,1-.46.14l-.44,0a2.11,2.11,0,0,1-.89-.16,1.14,1.14,0,0,1-.47-.42,1.23,1.23,0,0,1-.17-.57c0-.21,0-.42,0-.64V81.75h-1.15v-.86h1.15V79.41h1v1.48h1.42Z" transform="translate(0 13.12)"/><path class="cls-7" d="M221.19,83.51a2.56,2.56,0,0,1,.22-1.07,2.67,2.67,0,0,1,.59-.88,2.71,2.71,0,0,1,.89-.59,2.66,2.66,0,0,1,1.09-.22,2.7,2.7,0,0,1,1.1.22,2.8,2.8,0,0,1,1.48,1.47,2.72,2.72,0,0,1,.21,1.07,2.81,2.81,0,0,1-.21,1.08,2.83,2.83,0,0,1-1.48,1.46,2.88,2.88,0,0,1-1.1.22,2.83,2.83,0,0,1-1.09-.22,2.71,2.71,0,0,1-.89-.59,2.74,2.74,0,0,1-.81-1.95Zm1.07,0a2.21,2.21,0,0,0,.12.74,1.63,1.63,0,0,0,.34.57,1.6,1.6,0,0,0,.54.38,1.89,1.89,0,0,0,.72.14,1.81,1.81,0,0,0,.72-.14,1.55,1.55,0,0,0,.55-.38,1.8,1.8,0,0,0,.34-.57,2.34,2.34,0,0,0,0-1.48,1.8,1.8,0,0,0-.34-.57,1.55,1.55,0,0,0-.55-.38,1.81,1.81,0,0,0-.72-.14,1.89,1.89,0,0,0-.72.14,1.6,1.6,0,0,0-.54.38,1.63,1.63,0,0,0-.34.57A2.21,2.21,0,0,0,222.26,83.51Z" transform="translate(0 13.12)"/><path class="cls-7" d="M228,80.89h1v.75h0a2,2,0,0,1,.79-.66,2.57,2.57,0,0,1,1-.23A2.77,2.77,0,0,1,232,81a2.41,2.41,0,0,1,.84.59,2.55,2.55,0,0,1,.54.88,3.19,3.19,0,0,1,0,2.17A2.56,2.56,0,0,1,232,86.06a2.77,2.77,0,0,1-1.1.21,2.39,2.39,0,0,1-1.06-.24,1.9,1.9,0,0,1-.77-.65h0v3.88h-1Zm2.73.79a1.81,1.81,0,0,0-.72.14,1.43,1.43,0,0,0-.54.38,1.65,1.65,0,0,0-.35.57,2.34,2.34,0,0,0,0,1.48,1.65,1.65,0,0,0,.35.57,1.43,1.43,0,0,0,.54.38,1.81,1.81,0,0,0,.72.14,1.89,1.89,0,0,0,.72-.14,1.6,1.6,0,0,0,.54-.38,1.63,1.63,0,0,0,.34-.57,2.17,2.17,0,0,0,0-1.48,1.63,1.63,0,0,0-.34-.57,1.6,1.6,0,0,0-.54-.38A1.89,1.89,0,0,0,230.75,81.68Z" transform="translate(0 13.12)"/><path class="cls-7" d="M235.54,83.87a1.33,1.33,0,0,0,.15.63,1.53,1.53,0,0,0,.39.48,2,2,0,0,0,.57.31,1.87,1.87,0,0,0,.66.11,1.53,1.53,0,0,0,.81-.21,2.81,2.81,0,0,0,.63-.57l.76.57a2.78,2.78,0,0,1-2.33,1.08,2.87,2.87,0,0,1-1.12-.21,2.36,2.36,0,0,1-.85-.59,2.29,2.29,0,0,1-.54-.87,3,3,0,0,1-.19-1.09,3,3,0,0,1,.2-1.09,2.78,2.78,0,0,1,.57-.88,2.68,2.68,0,0,1,1.94-.79,2.48,2.48,0,0,1,1.18.25,2.25,2.25,0,0,1,.79.63,2.42,2.42,0,0,1,.45.89,3.77,3.77,0,0,1,.14,1v.35Zm3.15-.79a2.28,2.28,0,0,0-.11-.61,1.27,1.27,0,0,0-.28-.48,1.19,1.19,0,0,0-.47-.32,1.69,1.69,0,0,0-.66-.12,1.64,1.64,0,0,0-.67.14,1.68,1.68,0,0,0-.84.85,1.32,1.32,0,0,0-.12.54Z" transform="translate(0 13.12)"/><path class="cls-7" d="M246.2,86.13h-1v-.75h0a1.91,1.91,0,0,1-.8.65,2.35,2.35,0,0,1-1,.24,2.77,2.77,0,0,1-1.1-.21,2.54,2.54,0,0,1-1.38-1.47,2.92,2.92,0,0,1-.19-1.08,3,3,0,0,1,.19-1.09,2.41,2.41,0,0,1,.54-.88,2.52,2.52,0,0,1,.84-.58,2.77,2.77,0,0,1,1.1-.21,2.39,2.39,0,0,1,1.06.24,1.9,1.9,0,0,1,.77.65h0V77.76h1Zm-2.72-.79a1.81,1.81,0,0,0,.72-.14,1.51,1.51,0,0,0,.54-.38,1.82,1.82,0,0,0,.35-.57,2.34,2.34,0,0,0,0-1.48,1.82,1.82,0,0,0-.35-.57,1.51,1.51,0,0,0-.54-.38,1.92,1.92,0,0,0-1.44,0,1.6,1.6,0,0,0-.54.38,1.82,1.82,0,0,0-.35.57,2.34,2.34,0,0,0,0,1.48,1.82,1.82,0,0,0,.35.57,1.6,1.6,0,0,0,.54.38A1.81,1.81,0,0,0,243.48,85.34Z" transform="translate(0 13.12)"/><path class="cls-7" d="M247.56,79a.73.73,0,0,1,.73-.73.67.67,0,0,1,.51.22A.7.7,0,0,1,249,79a.74.74,0,0,1-.22.52.69.69,0,0,1-.51.21.72.72,0,0,1-.52-.21A.73.73,0,0,1,247.56,79Zm.23,1.89h1v5.24h-1Z" transform="translate(0 13.12)"/><path class="cls-7" d="M250.39,81.53a2.73,2.73,0,0,1,1-.58,3.34,3.34,0,0,1,1.11-.2,3,3,0,0,1,1,.15,1.78,1.78,0,0,1,.68.38,1.65,1.65,0,0,1,.4.56,1.84,1.84,0,0,1,.12.66v2.68c0,.19,0,.36,0,.51s0,.3,0,.44h-.89c0-.26,0-.53,0-.79h0a1.92,1.92,0,0,1-.79.72,2.46,2.46,0,0,1-1,.21,2.63,2.63,0,0,1-.7-.1,1.88,1.88,0,0,1-.58-.3,1.41,1.41,0,0,1-.39-.49,1.68,1.68,0,0,1,.08-1.54,1.77,1.77,0,0,1,.62-.56,3,3,0,0,1,.92-.31,6.6,6.6,0,0,1,1.12-.09h.73v-.22a1,1,0,0,0-.31-.76,1.16,1.16,0,0,0-.38-.26,1.57,1.57,0,0,0-.56-.09,2.41,2.41,0,0,0-.5,0,3.09,3.09,0,0,0-.4.14,2.14,2.14,0,0,0-.32.2l-.27.21Zm2.81,2.08a5.9,5.9,0,0,0-.72,0,2.34,2.34,0,0,0-.68.15,1.21,1.21,0,0,0-.5.31.69.69,0,0,0-.19.51.72.72,0,0,0,.3.65,1.54,1.54,0,0,0,.83.2,1.68,1.68,0,0,0,.7-.14,1.27,1.27,0,0,0,.46-.36,1.54,1.54,0,0,0,.26-.49,2,2,0,0,0,.07-.54v-.33Z" transform="translate(0 13.12)"/><path class="cls-7" d="M259.92,82.75a1.37,1.37,0,0,1,1.34-1.34,1.25,1.25,0,0,1,.94.4,1.26,1.26,0,0,1,.4.94,1.34,1.34,0,0,1-2.68,0Z" transform="translate(0 13.12)"/><path class="cls-7" d="M273.63,80a2.33,2.33,0,0,0-.85-.67,2.58,2.58,0,0,0-1-.23,2.77,2.77,0,0,0-1.2.25,2.83,2.83,0,0,0-.92.68,3.27,3.27,0,0,0-.59,1,3.69,3.69,0,0,0-.21,1.25,3.51,3.51,0,0,0,.2,1.17,2.9,2.9,0,0,0,.57,1,2.77,2.77,0,0,0,.92.66,3.07,3.07,0,0,0,1.23.25,2.52,2.52,0,0,0,1.19-.28,2.55,2.55,0,0,0,.86-.78l.9.68a3.12,3.12,0,0,1-.9.8,4,4,0,0,1-.88.4,3.6,3.6,0,0,1-1.19.17A4,4,0,0,1,270,86a4.26,4.26,0,0,1-1.27-.93,4.08,4.08,0,0,1-.8-1.3,4,4,0,0,1-.28-1.47,4.64,4.64,0,0,1,.3-1.68,4.07,4.07,0,0,1,.84-1.33,3.73,3.73,0,0,1,1.28-.87,4.51,4.51,0,0,1,1.67-.31,4.07,4.07,0,0,1,1.52.3,2.87,2.87,0,0,1,1.22.92Z" transform="translate(0 13.12)"/><path class="cls-7" d="M275.55,79a.75.75,0,0,1,.73-.73.7.7,0,0,1,.52.22A.69.69,0,0,1,277,79a.72.72,0,0,1-.73.73.69.69,0,0,1-.51-.21A.7.7,0,0,1,275.55,79Zm.24,1.89h1v5.24h-1Z" transform="translate(0 13.12)"/><path class="cls-7" d="M278.36,80.89h1v.8h0a1.65,1.65,0,0,1,.27-.38A1.76,1.76,0,0,1,280,81a2,2,0,0,1,.45-.2,2,2,0,0,1,.48-.07,1.25,1.25,0,0,1,.45.07l0,1.07-.24,0a1,1,0,0,0-.24,0,1.45,1.45,0,0,0-1.12.42,1.77,1.77,0,0,0-.39,1.27v2.63h-1Z" transform="translate(0 13.12)"/><path class="cls-7" d="M287.11,86.13h-1v-.8h0a1.46,1.46,0,0,1-.65.68,2.2,2.2,0,0,1-1.07.26,2.15,2.15,0,0,1-.73-.12,1.7,1.7,0,0,1-.61-.36,1.68,1.68,0,0,1-.41-.63,2.23,2.23,0,0,1-.16-.9V80.89h1V84a1.65,1.65,0,0,0,.1.62,1.11,1.11,0,0,0,.26.42.86.86,0,0,0,.39.23,1.32,1.32,0,0,0,.44.08,1.81,1.81,0,0,0,.58-.1,1.23,1.23,0,0,0,.46-.32,1.34,1.34,0,0,0,.31-.55,2.3,2.3,0,0,0,.11-.78v-2.7h1Z" transform="translate(0 13.12)"/><path class="cls-7" d="M293.88,86.09a2.75,2.75,0,0,1-.21,1.09,2.51,2.51,0,0,1-1.49,1.41,3.34,3.34,0,0,1-1.17.2,4.34,4.34,0,0,1-1.38-.21,3.28,3.28,0,0,1-1.19-.73l.68-.84a2.51,2.51,0,0,0,.84.63,2.61,2.61,0,0,0,2,.06,1.7,1.7,0,0,0,.58-.42,1.53,1.53,0,0,0,.3-.58,2.39,2.39,0,0,0,.09-.66v-.77h0a1.81,1.81,0,0,1-.78.7,2.5,2.5,0,0,1-1,.23A2.72,2.72,0,0,1,290,86a2.34,2.34,0,0,1-.84-.56,2.47,2.47,0,0,1-.56-.85,2.91,2.91,0,0,1-.2-1.07,3,3,0,0,1,.19-1.08,2.71,2.71,0,0,1,.54-.88,2.41,2.41,0,0,1,.84-.59,2.77,2.77,0,0,1,1.1-.21,2.57,2.57,0,0,1,1,.23,2,2,0,0,1,.79.66h0v-.75h1Zm-2.73-4.41a1.89,1.89,0,0,0-.72.14,1.6,1.6,0,0,0-.54.38,1.63,1.63,0,0,0-.34.57,2.21,2.21,0,0,0-.12.74,1.76,1.76,0,0,0,.46,1.28,1.89,1.89,0,0,0,2.52,0,1.77,1.77,0,0,0,.47-1.28,2.21,2.21,0,0,0-.12-.74,1.65,1.65,0,0,0-.35-.57,1.43,1.43,0,0,0-.54-.38A1.81,1.81,0,0,0,291.15,81.68Z" transform="translate(0 13.12)"/><path class="cls-7" d="M296.38,78.29h1.42l-1.65,1.6h-.92Zm-.92,2.6h1v5.24h-1Z" transform="translate(0 13.12)"/><path class="cls-7" d="M298.06,81.53a2.77,2.77,0,0,1,1-.58,3.24,3.24,0,0,1,1.1-.2,2.87,2.87,0,0,1,1,.15,1.78,1.78,0,0,1,.68.38,1.65,1.65,0,0,1,.4.56,1.84,1.84,0,0,1,.12.66v2.68c0,.19,0,.36,0,.51a3,3,0,0,0,0,.44h-.89c0-.26,0-.53,0-.79h0a1.92,1.92,0,0,1-.79.72,2.46,2.46,0,0,1-1,.21,2.69,2.69,0,0,1-.7-.1,1.88,1.88,0,0,1-.58-.3,1.41,1.41,0,0,1-.39-.49,1.68,1.68,0,0,1,.08-1.54,1.77,1.77,0,0,1,.62-.56,3,3,0,0,1,.92-.31,6.69,6.69,0,0,1,1.12-.09h.73v-.22a1.09,1.09,0,0,0-.07-.4,1,1,0,0,0-.24-.36,1.16,1.16,0,0,0-.38-.26,1.57,1.57,0,0,0-.56-.09,2.41,2.41,0,0,0-.5,0,3.54,3.54,0,0,0-.39.14,1.45,1.45,0,0,0-.32.2l-.28.21Zm2.81,2.08a6,6,0,0,0-.72,0,2.42,2.42,0,0,0-.68.15,1.21,1.21,0,0,0-.5.31.73.73,0,0,0-.19.51.7.7,0,0,0,.31.65,1.48,1.48,0,0,0,.82.2,1.65,1.65,0,0,0,.7-.14,1.27,1.27,0,0,0,.46-.36,1.37,1.37,0,0,0,.26-.49,2,2,0,0,0,.07-.54v-.33Z" transform="translate(0 13.12)"/><path class="cls-7" d="M312.12,86.13h-1v-.75h0a1.82,1.82,0,0,1-.79.65,2.35,2.35,0,0,1-1,.24,2.73,2.73,0,0,1-1.1-.21,2.46,2.46,0,0,1-1.38-1.47,2.92,2.92,0,0,1-.19-1.08,3,3,0,0,1,.19-1.09,2.53,2.53,0,0,1,.53-.88,2.67,2.67,0,0,1,.85-.58,2.73,2.73,0,0,1,1.1-.21,2.42,2.42,0,0,1,1.06.24,1.81,1.81,0,0,1,.76.65h0V77.76h1Zm-2.72-.79a1.89,1.89,0,0,0,.72-.14,1.6,1.6,0,0,0,.54-.38,1.63,1.63,0,0,0,.34-.57,2.17,2.17,0,0,0,0-1.48,1.63,1.63,0,0,0-.34-.57,1.6,1.6,0,0,0-.54-.38,1.89,1.89,0,0,0-.72-.14,1.81,1.81,0,0,0-.72.14,1.51,1.51,0,0,0-.54.38,1.65,1.65,0,0,0-.35.57,2.34,2.34,0,0,0,0,1.48,1.65,1.65,0,0,0,.35.57,1.51,1.51,0,0,0,.54.38A1.81,1.81,0,0,0,309.4,85.34Z" transform="translate(0 13.12)"/><path class="cls-7" d="M314.38,83.87a1.33,1.33,0,0,0,.15.63,1.53,1.53,0,0,0,.39.48,2,2,0,0,0,1.23.42,1.53,1.53,0,0,0,.81-.21,2.81,2.81,0,0,0,.63-.57l.75.57A2.75,2.75,0,0,1,316,86.27a2.87,2.87,0,0,1-1.12-.21,2.49,2.49,0,0,1-.86-.59,2.4,2.4,0,0,1-.53-.87,3,3,0,0,1-.19-1.09,3,3,0,0,1,.2-1.09,2.78,2.78,0,0,1,.57-.88A2.61,2.61,0,0,1,315,81a2.74,2.74,0,0,1,1.08-.21,2.48,2.48,0,0,1,1.18.25,2.35,2.35,0,0,1,.79.63,2.42,2.42,0,0,1,.45.89,3.77,3.77,0,0,1,.14,1v.35Zm3.15-.79a2.28,2.28,0,0,0-.11-.61,1.27,1.27,0,0,0-.28-.48,1.19,1.19,0,0,0-.47-.32,1.69,1.69,0,0,0-.66-.12,1.64,1.64,0,0,0-.67.14,1.61,1.61,0,0,0-.52.36,1.73,1.73,0,0,0-.32.49,1.32,1.32,0,0,0-.12.54Z" transform="translate(0 13.12)"/><path class="cls-7" d="M328.58,80a2.33,2.33,0,0,0-.85-.67,2.58,2.58,0,0,0-1.05-.23,2.77,2.77,0,0,0-1.2.25,2.83,2.83,0,0,0-.92.68,3.27,3.27,0,0,0-.59,1,3.69,3.69,0,0,0-.21,1.25,3.51,3.51,0,0,0,.2,1.17,2.9,2.9,0,0,0,.57,1,2.77,2.77,0,0,0,.92.66,3,3,0,0,0,1.23.25,2.52,2.52,0,0,0,1.19-.28,2.55,2.55,0,0,0,.86-.78l.9.68c-.06.08-.17.2-.31.35a3.36,3.36,0,0,1-.59.45,4,4,0,0,1-.88.4,3.6,3.6,0,0,1-1.19.17A4,4,0,0,1,325,86a4.13,4.13,0,0,1-1.27-.93,4.08,4.08,0,0,1-.8-1.3,4,4,0,0,1-.28-1.47,4.64,4.64,0,0,1,.3-1.68,4.21,4.21,0,0,1,.83-1.33,3.86,3.86,0,0,1,1.29-.87,4.51,4.51,0,0,1,1.67-.31,4.07,4.07,0,0,1,1.52.3,2.87,2.87,0,0,1,1.22.92Z" transform="translate(0 13.12)"/><path class="cls-7" d="M330.68,81.53a2.73,2.73,0,0,1,1-.58,3.34,3.34,0,0,1,1.11-.2,3,3,0,0,1,1,.15,1.86,1.86,0,0,1,.68.38,1.5,1.5,0,0,1,.39.56,1.65,1.65,0,0,1,.13.66v2.68c0,.19,0,.36,0,.51s0,.3,0,.44h-.89c0-.26,0-.53,0-.79h0a2,2,0,0,1-.79.72,2.46,2.46,0,0,1-1,.21,2.63,2.63,0,0,1-.7-.1,1.77,1.77,0,0,1-.58-.3,1.41,1.41,0,0,1-.39-.49,1.68,1.68,0,0,1,.08-1.54,1.77,1.77,0,0,1,.62-.56,3,3,0,0,1,.92-.31,6.6,6.6,0,0,1,1.12-.09H334v-.22a1,1,0,0,0-.31-.76,1.11,1.11,0,0,0-.39-.26,1.51,1.51,0,0,0-.55-.09,2.41,2.41,0,0,0-.5,0,3.09,3.09,0,0,0-.4.14,2.14,2.14,0,0,0-.32.2l-.27.21Zm2.81,2.08a5.79,5.79,0,0,0-.72,0,2.34,2.34,0,0,0-.68.15,1.21,1.21,0,0,0-.5.31.69.69,0,0,0-.19.51.72.72,0,0,0,.3.65,1.54,1.54,0,0,0,.83.2,1.6,1.6,0,0,0,.69-.14,1.23,1.23,0,0,0,.47-.36,1.54,1.54,0,0,0,.26-.49,2,2,0,0,0,.07-.54v-.33Z" transform="translate(0 13.12)"/><path class="cls-7" d="M341.66,86.13h-1v-.75h0a1.82,1.82,0,0,1-.79.65,2.35,2.35,0,0,1-1,.24,2.73,2.73,0,0,1-1.1-.21,2.46,2.46,0,0,1-1.38-1.47,2.92,2.92,0,0,1-.19-1.08,3,3,0,0,1,.19-1.09,2.53,2.53,0,0,1,.53-.88,2.67,2.67,0,0,1,.85-.58,2.73,2.73,0,0,1,1.1-.21,2.42,2.42,0,0,1,1.06.24,1.81,1.81,0,0,1,.76.65h0V77.76h1Zm-2.72-.79a1.85,1.85,0,0,0,.72-.14,1.6,1.6,0,0,0,.54-.38,1.63,1.63,0,0,0,.34-.57,2.17,2.17,0,0,0,0-1.48,1.63,1.63,0,0,0-.34-.57,1.6,1.6,0,0,0-.54-.38,1.85,1.85,0,0,0-.72-.14,1.81,1.81,0,0,0-.72.14,1.51,1.51,0,0,0-.54.38,1.65,1.65,0,0,0-.35.57,2.34,2.34,0,0,0,0,1.48,1.65,1.65,0,0,0,.35.57,1.51,1.51,0,0,0,.54.38A1.81,1.81,0,0,0,338.94,85.34Z" transform="translate(0 13.12)"/><path class="cls-7" d="M343.92,83.87a1.33,1.33,0,0,0,.15.63,1.53,1.53,0,0,0,.39.48,2,2,0,0,0,1.23.42,1.53,1.53,0,0,0,.81-.21,2.81,2.81,0,0,0,.63-.57l.75.57a2.75,2.75,0,0,1-2.32,1.08,2.87,2.87,0,0,1-1.12-.21,2.49,2.49,0,0,1-.86-.59,2.4,2.4,0,0,1-.53-.87,3,3,0,0,1-.19-1.09,3,3,0,0,1,.2-1.09,2.78,2.78,0,0,1,.57-.88,2.67,2.67,0,0,1,.85-.58,2.82,2.82,0,0,1,1.09-.21,2.51,2.51,0,0,1,1.18.25,2.35,2.35,0,0,1,.79.63,2.42,2.42,0,0,1,.45.89,3.77,3.77,0,0,1,.14,1v.35Zm3.14-.79a2,2,0,0,0-.1-.61,1.27,1.27,0,0,0-.28-.48,1.19,1.19,0,0,0-.47-.32,1.69,1.69,0,0,0-.66-.12,1.66,1.66,0,0,0-1.19.5,1.54,1.54,0,0,0-.32.49,1.32,1.32,0,0,0-.12.54Z" transform="translate(0 13.12)"/><path class="cls-7" d="M349.32,80.89h1v.8h0a1.65,1.65,0,0,1,.27-.38A1.76,1.76,0,0,1,351,81a2,2,0,0,1,.45-.2,2,2,0,0,1,.48-.07,1.25,1.25,0,0,1,.45.07l-.05,1.07-.24,0a1,1,0,0,0-.24,0,1.45,1.45,0,0,0-1.12.42,1.77,1.77,0,0,0-.39,1.27v2.63h-1Z" transform="translate(0 13.12)"/><path class="cls-7" d="M353.44,81.53a2.77,2.77,0,0,1,1-.58,3.33,3.33,0,0,1,1.1-.2,2.87,2.87,0,0,1,1,.15,1.9,1.9,0,0,1,.69.38,1.77,1.77,0,0,1,.39.56,1.85,1.85,0,0,1,.13.66v2.68c0,.19,0,.36,0,.51s0,.3,0,.44h-.89c0-.26,0-.53,0-.79h0a1.86,1.86,0,0,1-.79.72,2.46,2.46,0,0,1-1,.21,2.75,2.75,0,0,1-.7-.1,1.88,1.88,0,0,1-.58-.3,1.69,1.69,0,0,1-.39-.49,1.76,1.76,0,0,1,.08-1.54,1.77,1.77,0,0,1,.62-.56,3,3,0,0,1,.92-.31,6.72,6.72,0,0,1,1.13-.09h.73v-.22a1.1,1.1,0,0,0-.08-.4,1.05,1.05,0,0,0-.23-.36,1.33,1.33,0,0,0-.39-.26,1.55,1.55,0,0,0-.55-.09,2.51,2.51,0,0,0-.51,0,3.54,3.54,0,0,0-.39.14,1.45,1.45,0,0,0-.32.2l-.28.21Zm2.81,2.08a6,6,0,0,0-.72,0,2.42,2.42,0,0,0-.68.15,1.12,1.12,0,0,0-.49.31.69.69,0,0,0-.2.51.7.7,0,0,0,.31.65,1.48,1.48,0,0,0,.82.2,1.65,1.65,0,0,0,.7-.14,1.19,1.19,0,0,0,.46-.36,1.37,1.37,0,0,0,.26-.49,2,2,0,0,0,.08-.54v-.33Z" transform="translate(0 13.12)"/></g></g></svg>