<svg xmlns="http://www.w3.org/2000/svg" xmlns:xlink="http://www.w3.org/1999/xlink" viewBox="0 0 272.94 119.16"><defs><style>.cls-1{fill:none;}.cls-2{fill:#01a89e;}.cls-3{fill:#878787;}.cls-4{clip-path:url(#clip-path);}.cls-5{fill:#fff;}.cls-6{clip-path:url(#clip-path-2);}.cls-7{fill:url(#Degradado_sin_nombre_22);}</style><clipPath id="clip-path" transform="translate(0 13)"><rect class="cls-1" x="1" y="1" width="104.16" height="104.16" rx="52.08"/></clipPath><clipPath id="clip-path-2" transform="translate(0 13)"><path class="cls-1" d="M34.84,57.06c-.27-2.54-2.18-4.43-4.27-4.21s-3.56,2.46-3.29,5a5.59,5.59,0,0,0,.4,1.56c-.19.87-1.1,2.48-5.21,2.48H22s-.71,0-.56,2.18,1.73,29.08,1.73,29.08.19,1.12,1,1.12h0c.79,0,.88-1.29.88-1.29l.16-18.51a30.32,30.32,0,0,1,.8-6,14.88,14.88,0,0,1,3.19-7.06,3.32,3.32,0,0,0,2.31.65C33.63,61.85,35.11,59.61,34.84,57.06Z"/></clipPath><linearGradient id="Degradado_sin_nombre_22" x1="34.87" y1="73.55" x2="21.42" y2="73.55" gradientUnits="userSpaceOnUse"><stop offset="0" stop-color="#f6f6f6"/><stop offset="1" stop-color="#c6c6c6"/></linearGradient></defs><g id="Capa_2" data-name="Capa 2"><g id="Capa_1-2" data-name="Capa 1"><path class="cls-2" d="M154,45.62a20.49,20.49,0,0,1-1.14,7,15.32,15.32,0,0,1-3.39,5.52,15.53,15.53,0,0,1-5.61,3.66,23.53,23.53,0,0,1-15.54,0,15.53,15.53,0,0,1-5.61-3.66,15.32,15.32,0,0,1-3.39-5.52,20.49,20.49,0,0,1-1.14-7V19.52h9.36V45.26a10.34,10.34,0,0,0,.63,3.66,8.74,8.74,0,0,0,1.77,2.91,8,8,0,0,0,2.73,1.92,8.57,8.57,0,0,0,3.45.69,8.36,8.36,0,0,0,3.42-.69,8.12,8.12,0,0,0,2.7-1.92A8.74,8.74,0,0,0,144,48.92a10.34,10.34,0,0,0,.63-3.66V19.52H154Z" transform="translate(0 13)"/><path class="cls-2" d="M159.6,19.52H176a29,29,0,0,1,6.15.63,14.59,14.59,0,0,1,5.1,2.1,10.46,10.46,0,0,1,3.48,4,13.41,13.41,0,0,1,1.29,6.21,12.47,12.47,0,0,1-2.34,7.65,10.53,10.53,0,0,1-6.84,4L193.68,62H182.46l-8.88-17H169V62H159.6ZM169,37.1h5.52q1.26,0,2.67-.09a8.36,8.36,0,0,0,2.55-.54,4.41,4.41,0,0,0,1.89-1.41,4.29,4.29,0,0,0,.75-2.7,4.48,4.48,0,0,0-.66-2.58A4.4,4.4,0,0,0,180,28.31a7.45,7.45,0,0,0-2.34-.69,19.09,19.09,0,0,0-2.58-.18H169Z" transform="translate(0 13)"/><path class="cls-2" d="M209.46,19.52h7.74L235.68,62H225.12l-3.66-9H205l-3.54,9H191.1Zm3.6,12.36-5.16,13.2h10.38Z" transform="translate(0 13)"/><path class="cls-2" d="M264.72,30.56A9.18,9.18,0,0,0,261.33,28a11.28,11.28,0,0,0-4.65-.9A11.64,11.64,0,0,0,247.89,31a13.28,13.28,0,0,0-2.58,4.35,16.58,16.58,0,0,0,0,11,13.64,13.64,0,0,0,2.55,4.32,11.56,11.56,0,0,0,3.81,2.85,11,11,0,0,0,4.71,1,10.56,10.56,0,0,0,5.1-1.2,10.15,10.15,0,0,0,3.66-3.36l7.8,5.82a16.24,16.24,0,0,1-6.84,5.58,21.16,21.16,0,0,1-8.52,1.8,26.4,26.4,0,0,1-9.18-1.56,21,21,0,0,1-7.26-4.47,20.27,20.27,0,0,1-4.77-7,24,24,0,0,1-1.71-9.24,24,24,0,0,1,1.71-9.24,20.27,20.27,0,0,1,4.77-7A21,21,0,0,1,248.4,20a26.17,26.17,0,0,1,9.18-1.56,22.48,22.48,0,0,1,3.75.33,20.26,20.26,0,0,1,3.84,1.05,17.11,17.11,0,0,1,3.63,1.92,14.44,14.44,0,0,1,3.12,2.94Z" transform="translate(0 13)"/><path class="cls-3" d="M142.31,68v4.71a3.25,3.25,0,0,0,.09.74,2.2,2.2,0,0,0,.33.71,1.62,1.62,0,0,0,.6.53,1.8,1.8,0,0,0,.91.21,1.83,1.83,0,0,0,.91-.21,1.62,1.62,0,0,0,.6-.53,2,2,0,0,0,.32-.71,2.8,2.8,0,0,0,.1-.74V68h1v4.87a3,3,0,0,1-.23,1.22,3,3,0,0,1-.62,1,2.74,2.74,0,0,1-1,.62,3.22,3.22,0,0,1-2.34,0,2.65,2.65,0,0,1-.95-.62,3,3,0,0,1-.63-1,3.16,3.16,0,0,1-.22-1.22V68Z" transform="translate(0 13)"/><path class="cls-3" d="M148.8,70.52h1v.79h0a1.45,1.45,0,0,1,.65-.67,2.09,2.09,0,0,1,1.05-.25,2.15,2.15,0,0,1,.71.11,1.64,1.64,0,0,1,.6.35,1.7,1.7,0,0,1,.4.62,2.34,2.34,0,0,1,.16.88v3.31h-1v-3a1.59,1.59,0,0,0-.1-.61,1,1,0,0,0-.26-.41,1,1,0,0,0-.37-.23,1.31,1.31,0,0,0-.44-.07,1.52,1.52,0,0,0-.57.1,1,1,0,0,0-.45.31,1.46,1.46,0,0,0-.31.53,2.55,2.55,0,0,0-.11.77v2.65h-1Z" transform="translate(0 13)"/><path class="cls-3" d="M154.68,68.67a.72.72,0,1,1,.21.51A.69.69,0,0,1,154.68,68.67Zm.23,1.85h1v5.14h-1Z" transform="translate(0 13)"/><path class="cls-3" d="M162.59,75.66h-1v-.74h0a1.74,1.74,0,0,1-.77.64,2.3,2.3,0,0,1-1,.23,2.85,2.85,0,0,1-1.08-.2,2.4,2.4,0,0,1-.82-.58,2.53,2.53,0,0,1-.53-.86,3,3,0,0,1-.18-1.06,3.12,3.12,0,0,1,.18-1.07,2.44,2.44,0,0,1,.53-.86,2.52,2.52,0,0,1,.82-.57,2.85,2.85,0,0,1,1.08-.2,2.37,2.37,0,0,1,1,.23,1.79,1.79,0,0,1,.74.64h0v-3.8h1Zm-2.67-.78a1.64,1.64,0,0,0,.71-.14,1.55,1.55,0,0,0,.53-.36,1.8,1.8,0,0,0,.34-.57,2.22,2.22,0,0,0,0-1.44,1.8,1.8,0,0,0-.34-.57,1.58,1.58,0,0,0-.53-.37,1.8,1.8,0,0,0-.71-.13,1.75,1.75,0,0,0-.7.13,1.58,1.58,0,0,0-.53.37,1.63,1.63,0,0,0-.34.57,2.22,2.22,0,0,0,0,1.44,1.63,1.63,0,0,0,.34.57,1.55,1.55,0,0,0,.53.36A1.59,1.59,0,0,0,159.92,74.88Z" transform="translate(0 13)"/><path class="cls-3" d="M164.09,71.15a2.57,2.57,0,0,1,.95-.57,3.25,3.25,0,0,1,1.09-.19,2.8,2.8,0,0,1,1,.14,1.81,1.81,0,0,1,.67.38,1.47,1.47,0,0,1,.38.55,1.56,1.56,0,0,1,.13.64v2.63c0,.18,0,.35,0,.5l0,.43h-.87q0-.39,0-.78h0a1.92,1.92,0,0,1-.77.71,2.56,2.56,0,0,1-1,.2,2.15,2.15,0,0,1-.68-.1,1.54,1.54,0,0,1-.57-.29,1.29,1.29,0,0,1-.39-.48,1.57,1.57,0,0,1-.14-.67,1.5,1.5,0,0,1,.22-.84,1.69,1.69,0,0,1,.61-.54,3,3,0,0,1,.9-.31,6.36,6.36,0,0,1,1.1-.09h.72v-.22a1.09,1.09,0,0,0-.08-.39.89.89,0,0,0-.23-.35.94.94,0,0,0-.38-.25,1.45,1.45,0,0,0-.54-.09,2.31,2.31,0,0,0-.49,0,2.24,2.24,0,0,0-.39.14,1.61,1.61,0,0,0-.31.19l-.27.2Zm2.76,2a5.74,5.74,0,0,0-.71,0,2.65,2.65,0,0,0-.67.14,1.25,1.25,0,0,0-.48.31.66.66,0,0,0-.2.49.7.7,0,0,0,.3.64,1.75,1.75,0,0,0,1.5.06,1.14,1.14,0,0,0,.45-.35,1.23,1.23,0,0,0,.25-.48,2,2,0,0,0,.08-.53v-.32Z" transform="translate(0 13)"/><path class="cls-3" d="M174.86,75.66h-1v-.74h0a1.83,1.83,0,0,1-.78.64,2.29,2.29,0,0,1-1,.23,2.85,2.85,0,0,1-1.08-.2,2.44,2.44,0,0,1-.83-.58,2.68,2.68,0,0,1-.52-.86,2.81,2.81,0,0,1-.19-1.06,2.9,2.9,0,0,1,.19-1.07A2.38,2.38,0,0,1,171,70.59a2.85,2.85,0,0,1,1.08-.2,2.32,2.32,0,0,1,1,.23,1.76,1.76,0,0,1,.75.64h0v-3.8h1Zm-2.67-.78a1.59,1.59,0,0,0,.7-.14,1.55,1.55,0,0,0,.53-.36,1.63,1.63,0,0,0,.34-.57,2.22,2.22,0,0,0,0-1.44,1.63,1.63,0,0,0-.34-.57,1.58,1.58,0,0,0-.53-.37,1.75,1.75,0,0,0-.7-.13,1.8,1.8,0,0,0-.71.13,1.58,1.58,0,0,0-.53.37,1.63,1.63,0,0,0-.34.57,2.22,2.22,0,0,0,0,1.44,1.63,1.63,0,0,0,.34.57,1.55,1.55,0,0,0,.53.36A1.64,1.64,0,0,0,172.19,74.88Z" transform="translate(0 13)"/><path class="cls-3" d="M184.51,75.66h-1v-.74h0a1.83,1.83,0,0,1-.78.64,2.29,2.29,0,0,1-1,.23,2.85,2.85,0,0,1-1.08-.2,2.35,2.35,0,0,1-.83-.58,2.51,2.51,0,0,1-.52-.86,2.81,2.81,0,0,1-.19-1.06,2.9,2.9,0,0,1,.19-1.07,2.42,2.42,0,0,1,.52-.86,2.46,2.46,0,0,1,.83-.57,2.85,2.85,0,0,1,1.08-.2,2.32,2.32,0,0,1,1,.23,1.89,1.89,0,0,1,.75.64h0v-3.8h1Zm-2.67-.78a1.59,1.59,0,0,0,.7-.14,1.55,1.55,0,0,0,.53-.36,1.63,1.63,0,0,0,.34-.57,2.22,2.22,0,0,0,0-1.44,1.63,1.63,0,0,0-.34-.57,1.58,1.58,0,0,0-.53-.37,1.75,1.75,0,0,0-.7-.13,1.8,1.8,0,0,0-.71.13,1.58,1.58,0,0,0-.53.37,1.63,1.63,0,0,0-.34.57,2.22,2.22,0,0,0,0,1.44,1.63,1.63,0,0,0,.34.57,1.55,1.55,0,0,0,.53.36A1.64,1.64,0,0,0,181.84,74.88Z" transform="translate(0 13)"/><path class="cls-3" d="M186.72,73.45a1.25,1.25,0,0,0,.15.61,1.34,1.34,0,0,0,.38.47,1.8,1.8,0,0,0,1.21.41,1.48,1.48,0,0,0,.79-.21,2.48,2.48,0,0,0,.62-.56l.74.57a2.74,2.74,0,0,1-2.28,1.05,3,3,0,0,1-1.11-.2,2.46,2.46,0,0,1-.83-.57,2.53,2.53,0,0,1-.53-.86,3.12,3.12,0,0,1-.18-1.07,2.72,2.72,0,0,1,.2-1.07,2.64,2.64,0,0,1,.55-.86,2.71,2.71,0,0,1,.84-.57,2.87,2.87,0,0,1,1.07-.2,2.51,2.51,0,0,1,1.15.24,2.09,2.09,0,0,1,.78.62,2.55,2.55,0,0,1,.44.87,3.62,3.62,0,0,1,.13,1v.35Zm3.08-.78a2.21,2.21,0,0,0-.1-.6,1.31,1.31,0,0,0-.28-.47,1.19,1.19,0,0,0-.46-.32,1.8,1.8,0,0,0-.65-.11,1.55,1.55,0,0,0-1.16.49,1.75,1.75,0,0,0-.32.48,1.44,1.44,0,0,0-.11.53Z" transform="translate(0 13)"/><path class="cls-3" d="M195.28,68H198a3,3,0,0,1,1.21.2,1.91,1.91,0,0,1,.75.51,1.65,1.65,0,0,1,.39.69,2.9,2.9,0,0,1,.11.75,1.94,1.94,0,0,1-.13.71,2.32,2.32,0,0,1-.37.62,2.28,2.28,0,0,1-.6.46,2.08,2.08,0,0,1-.79.24l2.18,3.5h-1.3l-1.95-3.39h-1.17v3.39h-1Zm1,3.38h1.37a3,3,0,0,0,.6,0,1.8,1.8,0,0,0,.54-.17,1,1,0,0,0,.37-.38,1.28,1.28,0,0,0,.14-.63,1.32,1.32,0,0,0-.14-.64.94.94,0,0,0-.37-.37,1.56,1.56,0,0,0-.54-.18,3,3,0,0,0-.6,0h-1.37Z" transform="translate(0 13)"/><path class="cls-3" d="M202.4,73.45a1.25,1.25,0,0,0,.15.61,1.49,1.49,0,0,0,.39.47,1.83,1.83,0,0,0,.55.31,2.05,2.05,0,0,0,.65.1,1.46,1.46,0,0,0,.79-.21,2.32,2.32,0,0,0,.62-.56l.74.57A2.71,2.71,0,0,1,204,75.79a3,3,0,0,1-1.1-.2,2.36,2.36,0,0,1-1.36-1.43,3,3,0,0,1,0-2.14,2.67,2.67,0,0,1,.56-.86,2.5,2.5,0,0,1,.84-.57,2.82,2.82,0,0,1,1.06-.2,2.55,2.55,0,0,1,1.16.24,2.13,2.13,0,0,1,.77.62,2.55,2.55,0,0,1,.44.87,3.63,3.63,0,0,1,.14,1v.35Zm3.09-.78a2.21,2.21,0,0,0-.11-.6,1.29,1.29,0,0,0-.27-.47,1.31,1.31,0,0,0-.47-.32,1.79,1.79,0,0,0-.64-.11,1.59,1.59,0,0,0-.66.13,1.43,1.43,0,0,0-.5.36,1.39,1.39,0,0,0-.32.48,1.28,1.28,0,0,0-.12.53Z" transform="translate(0 13)"/><path class="cls-3" d="M208.44,73.45a1.25,1.25,0,0,0,.15.61,1.34,1.34,0,0,0,.38.47,2,2,0,0,0,.55.31,2.07,2.07,0,0,0,.66.1,1.48,1.48,0,0,0,.79-.21,2.48,2.48,0,0,0,.62-.56l.73.57A2.71,2.71,0,0,1,210,75.79a3,3,0,0,1-1.1-.2,2.46,2.46,0,0,1-.83-.57,2.53,2.53,0,0,1-.53-.86,3.12,3.12,0,0,1-.18-1.07,2.72,2.72,0,0,1,.2-1.07,2.64,2.64,0,0,1,.55-.86,2.71,2.71,0,0,1,.84-.57,2.87,2.87,0,0,1,1.07-.2,2.51,2.51,0,0,1,1.15.24,2.09,2.09,0,0,1,.78.62,2.55,2.55,0,0,1,.44.87,3.62,3.62,0,0,1,.13,1v.35Zm3.08-.78a2.21,2.21,0,0,0-.1-.6,1.31,1.31,0,0,0-.28-.47,1.19,1.19,0,0,0-.46-.32,1.8,1.8,0,0,0-.65-.11,1.54,1.54,0,0,0-.65.13,1.57,1.57,0,0,0-.51.36,1.55,1.55,0,0,0-.32.48,1.44,1.44,0,0,0-.11.53Z" transform="translate(0 13)"/><path class="cls-3" d="M213.73,70.52h.92v.8h0a.88.88,0,0,1,.17-.27,1.72,1.72,0,0,1,.34-.31,2.12,2.12,0,0,1,.5-.25,1.87,1.87,0,0,1,.64-.1,1.8,1.8,0,0,1,1,.24,1.65,1.65,0,0,1,.64.71,1.62,1.62,0,0,1,.71-.71,1.94,1.94,0,0,1,.92-.24,2.14,2.14,0,0,1,1,.19,1.6,1.6,0,0,1,.6.52,1.92,1.92,0,0,1,.29.72,4,4,0,0,1,.09.85v3h-1V72.8a3.48,3.48,0,0,0,0-.57,1.43,1.43,0,0,0-.16-.48,1,1,0,0,0-.33-.33,1.22,1.22,0,0,0-.58-.12,1.15,1.15,0,0,0-1,.43,1.92,1.92,0,0,0-.3,1.12v2.81h-1V73a4.55,4.55,0,0,0,0-.67,1.37,1.37,0,0,0-.15-.53.83.83,0,0,0-.32-.35,1.18,1.18,0,0,0-.57-.12,1.25,1.25,0,0,0-.51.1,1.27,1.27,0,0,0-.43.31,1.49,1.49,0,0,0-.29.53,2.37,2.37,0,0,0-.11.75v2.67h-1Z" transform="translate(0 13)"/><path class="cls-3" d="M223,70.52h1v.74h0a1.92,1.92,0,0,1,.78-.65,2.39,2.39,0,0,1,1-.22,2.85,2.85,0,0,1,1.08.2,2.44,2.44,0,0,1,.83.58,2.57,2.57,0,0,1,.52.86,2.85,2.85,0,0,1,.19,1.06,2.9,2.9,0,0,1-.19,1.07,2.68,2.68,0,0,1-.52.86,2.56,2.56,0,0,1-.83.57,2.85,2.85,0,0,1-1.08.2,2.43,2.43,0,0,1-1-.23,1.76,1.76,0,0,1-.75-.64h0v3.8h-1Zm2.67.78a1.75,1.75,0,0,0-.7.13,1.73,1.73,0,0,0-.54.37,1.78,1.78,0,0,0-.33.57,2.22,2.22,0,0,0,0,1.44,1.78,1.78,0,0,0,.33.57,1.7,1.7,0,0,0,.54.36,1.59,1.59,0,0,0,.7.14,1.64,1.64,0,0,0,.71-.14,1.66,1.66,0,0,0,.53-.36,1.61,1.61,0,0,0,.33-.57,2.06,2.06,0,0,0,0-1.44,1.61,1.61,0,0,0-.33-.57,1.68,1.68,0,0,0-.53-.37A1.8,1.8,0,0,0,225.65,71.3Z" transform="translate(0 13)"/><path class="cls-3" d="M229.69,67.46h1v8.2h-1Z" transform="translate(0 13)"/><path class="cls-3" d="M232.24,71.15a2.46,2.46,0,0,1,1-.57,3.15,3.15,0,0,1,1.08-.19,2.8,2.8,0,0,1,1,.14,1.81,1.81,0,0,1,.67.38,1.47,1.47,0,0,1,.38.55,1.56,1.56,0,0,1,.13.64v2.63c0,.18,0,.35,0,.5l0,.43h-.87q0-.39,0-.78h0a1.92,1.92,0,0,1-.77.71,2.56,2.56,0,0,1-1,.2,2.26,2.26,0,0,1-.69-.1,1.71,1.71,0,0,1-.57-.29,1.37,1.37,0,0,1-.38-.48,1.57,1.57,0,0,1-.14-.67,1.5,1.5,0,0,1,.22-.84,1.69,1.69,0,0,1,.61-.54,2.89,2.89,0,0,1,.9-.31,6.36,6.36,0,0,1,1.1-.09h.72v-.22a1.09,1.09,0,0,0-.08-.39,1,1,0,0,0-.23-.35.94.94,0,0,0-.38-.25,1.45,1.45,0,0,0-.54-.09,2.31,2.31,0,0,0-.49,0,2.24,2.24,0,0,0-.39.14,1.61,1.61,0,0,0-.31.19l-.27.2Zm2.76,2a5.74,5.74,0,0,0-.71,0,2.65,2.65,0,0,0-.67.14,1.29,1.29,0,0,0-.49.31.69.69,0,0,0-.18.49.7.7,0,0,0,.29.64,1.75,1.75,0,0,0,1.5.06,1.3,1.3,0,0,0,.7-.83,2,2,0,0,0,.08-.53v-.32Z" transform="translate(0 13)"/><path class="cls-3" d="M237.49,74.78l2.92-3.42h-2.82v-.84h4v.87l-2.94,3.42h3.09v.85h-4.27Z" transform="translate(0 13)"/><path class="cls-3" d="M242.63,73.09a2.59,2.59,0,0,1,.21-1,2.66,2.66,0,0,1,.58-.86,2.51,2.51,0,0,1,.87-.58,2.72,2.72,0,0,1,1.07-.21,2.77,2.77,0,0,1,1.08.21,2.56,2.56,0,0,1,.86.58,2.66,2.66,0,0,1,.58.86,2.44,2.44,0,0,1,.22,1,2.52,2.52,0,0,1-.22,1.06,2.66,2.66,0,0,1-1.44,1.43,2.77,2.77,0,0,1-1.08.21,2.72,2.72,0,0,1-1.07-.21,2.63,2.63,0,0,1-.87-.57,2.68,2.68,0,0,1-.79-1.92Zm1,0a2.09,2.09,0,0,0,.12.72,1.78,1.78,0,0,0,.33.57,1.7,1.7,0,0,0,.54.36,1.59,1.59,0,0,0,.7.14,1.64,1.64,0,0,0,.71-.14,1.66,1.66,0,0,0,.53-.36,1.8,1.8,0,0,0,.34-.57,2.41,2.41,0,0,0,0-1.44,1.8,1.8,0,0,0-.34-.57,1.68,1.68,0,0,0-.53-.37,1.8,1.8,0,0,0-.71-.13,1.75,1.75,0,0,0-.7.13,1.73,1.73,0,0,0-.54.37,1.78,1.78,0,0,0-.33.57A2.09,2.09,0,0,0,243.67,73.09Z" transform="translate(0 13)"/><path class="cls-3" d="M150.15,78h.95l3.29,7.68h-1.22l-.77-1.9h-3.66l-.76,1.9h-1.21ZM152,82.85l-1.43-3.53h0l-1.46,3.53Z" transform="translate(0 13)"/><path class="cls-3" d="M155.14,80.52h1v.79h0a2,2,0,0,1,.26-.38,1.72,1.72,0,0,1,.37-.28,1.84,1.84,0,0,1,.92-.26,1.49,1.49,0,0,1,.43.06l0,1-.24,0-.24,0a1.44,1.44,0,0,0-1.1.4,1.78,1.78,0,0,0-.38,1.25v2.58h-1Z" transform="translate(0 13)"/><path class="cls-3" d="M161.91,81.36h-1.4V83.7c0,.14,0,.28,0,.43a1.17,1.17,0,0,0,.08.38.64.64,0,0,0,.22.27.74.74,0,0,0,.43.1l.36,0a.93.93,0,0,0,.33-.12v.89a1.2,1.2,0,0,1-.45.13,2.72,2.72,0,0,1-.43,0,1.87,1.87,0,0,1-.87-.16,1.07,1.07,0,0,1-.46-.4,1.35,1.35,0,0,1-.17-.56q0-.32,0-.63V81.36H158.4v-.84h1.13V79.07h1v1.45h1.4Z" transform="translate(0 13)"/><path class="cls-3" d="M163,78.67a.72.72,0,1,1,.21.51A.69.69,0,0,1,163,78.67Zm.22,1.85h1v5.14h-1Z" transform="translate(0 13)"/><path class="cls-3" d="M169.45,81.88a2,2,0,0,0-.57-.42,1.73,1.73,0,0,0-1.41,0,1.39,1.39,0,0,0-.5.4,1.88,1.88,0,0,0-.3.58,2.26,2.26,0,0,0-.11.69,2.16,2.16,0,0,0,.12.68,1.87,1.87,0,0,0,.34.56,1.59,1.59,0,0,0,.52.37,1.74,1.74,0,0,0,1.39,0,1.65,1.65,0,0,0,.54-.42l.7.69a2.26,2.26,0,0,1-.89.61,3.12,3.12,0,0,1-1.07.18,3,3,0,0,1-1.09-.19,2.6,2.6,0,0,1-.85-.55,2.45,2.45,0,0,1-.55-.85,3.07,3.07,0,0,1,0-2.18,2.4,2.4,0,0,1,.55-.86,2.34,2.34,0,0,1,.84-.56,3.07,3.07,0,0,1,2.18,0,2.32,2.32,0,0,1,.9.61Z" transform="translate(0 13)"/><path class="cls-3" d="M175.56,85.66h-1v-.79h0a1.42,1.42,0,0,1-.64.67,2.09,2.09,0,0,1-1,.25,2.46,2.46,0,0,1-.72-.11,1.71,1.71,0,0,1-.59-.36,1.58,1.58,0,0,1-.4-.61,2.16,2.16,0,0,1-.16-.88V80.52h1v3a1.63,1.63,0,0,0,.1.61,1,1,0,0,0,.26.41,1,1,0,0,0,.37.23,1.35,1.35,0,0,0,.44.07,1.52,1.52,0,0,0,.57-.1,1.14,1.14,0,0,0,.45-.31,1.61,1.61,0,0,0,.31-.53,2.55,2.55,0,0,0,.11-.77V80.52h1Z" transform="translate(0 13)"/><path class="cls-3" d="M177.12,77.46h1v8.2h-1Z" transform="translate(0 13)"/><path class="cls-3" d="M179.67,81.15a2.49,2.49,0,0,1,1-.57,3.15,3.15,0,0,1,1.08-.19,2.86,2.86,0,0,1,1,.14,1.89,1.89,0,0,1,.67.38,1.47,1.47,0,0,1,.38.55,1.74,1.74,0,0,1,.13.64v2.63c0,.18,0,.35,0,.5a3,3,0,0,0,0,.43H183q0-.39,0-.78h0a1.94,1.94,0,0,1-.78.71,2.52,2.52,0,0,1-1,.2,2.24,2.24,0,0,1-.68-.1,1.54,1.54,0,0,1-.57-.29,1.37,1.37,0,0,1-.38-.48,1.44,1.44,0,0,1-.15-.67,1.51,1.51,0,0,1,.23-.84,1.74,1.74,0,0,1,.6-.54,3,3,0,0,1,.9-.31,6.57,6.57,0,0,1,1.11-.09h.71v-.22a1.07,1.07,0,0,0-.07-.39,1.08,1.08,0,0,0-.61-.6,1.45,1.45,0,0,0-.54-.09,2.41,2.41,0,0,0-.5,0,1.88,1.88,0,0,0-.38.14,1.69,1.69,0,0,0-.32.19l-.27.2Zm2.75,2a5.74,5.74,0,0,0-.71,0,2.66,2.66,0,0,0-.66.14,1.29,1.29,0,0,0-.49.31.66.66,0,0,0-.19.49.7.7,0,0,0,.3.64,1.47,1.47,0,0,0,.81.2,1.42,1.42,0,0,0,.68-.14,1.25,1.25,0,0,0,.46-.35,1.38,1.38,0,0,0,.25-.48,1.93,1.93,0,0,0,.07-.53v-.32Z" transform="translate(0 13)"/><path class="cls-3" d="M185.28,80.52h1v.79h0a1.35,1.35,0,0,1,.26-.38,1.65,1.65,0,0,1,.36-.28,1.84,1.84,0,0,1,.92-.26,1.49,1.49,0,0,1,.43.06l0,1-.24,0-.24,0a1.44,1.44,0,0,0-1.1.4,1.78,1.78,0,0,0-.38,1.25v2.58h-1Z" transform="translate(0 13)"/><path class="cls-3" d="M193.05,83.45a1.25,1.25,0,0,0,.15.61,1.34,1.34,0,0,0,.38.47,2,2,0,0,0,.55.31,2.07,2.07,0,0,0,.66.1,1.48,1.48,0,0,0,.79-.21,2.48,2.48,0,0,0,.62-.56l.73.57a2.71,2.71,0,0,1-2.28,1.05,3,3,0,0,1-1.1-.2,2.46,2.46,0,0,1-.83-.57,2.53,2.53,0,0,1-.53-.86,3.12,3.12,0,0,1-.18-1.07,2.72,2.72,0,0,1,.2-1.07,2.64,2.64,0,0,1,.55-.86,2.71,2.71,0,0,1,.84-.57,2.87,2.87,0,0,1,1.07-.2,2.51,2.51,0,0,1,1.15.24,2.17,2.17,0,0,1,.78.62,2.55,2.55,0,0,1,.44.87,3.62,3.62,0,0,1,.13,1v.35Zm3.08-.78a2.21,2.21,0,0,0-.1-.6,1.47,1.47,0,0,0-.28-.47,1.27,1.27,0,0,0-.46-.32,1.8,1.8,0,0,0-.65-.11,1.54,1.54,0,0,0-.65.13,1.57,1.57,0,0,0-.51.36,1.55,1.55,0,0,0-.32.48,1.44,1.44,0,0,0-.11.53Z" transform="translate(0 13)"/><path class="cls-3" d="M198.35,80.52h1v.79h0a1.47,1.47,0,0,1,.64-.67,2.36,2.36,0,0,1,1.77-.14,1.68,1.68,0,0,1,.59.35,1.72,1.72,0,0,1,.41.62,2.35,2.35,0,0,1,.15.88v3.31h-1v-3a1.81,1.81,0,0,0-.1-.61,1.11,1.11,0,0,0-.26-.41.93.93,0,0,0-.38-.23,1.27,1.27,0,0,0-.44-.07,1.47,1.47,0,0,0-.56.1,1.14,1.14,0,0,0-.46.31,1.44,1.44,0,0,0-.3.53,2.55,2.55,0,0,0-.11.77v2.65h-1Z" transform="translate(0 13)"/><path class="cls-3" d="M213,79.64a2.13,2.13,0,0,0-.83-.65,2.31,2.31,0,0,0-1-.23A2.83,2.83,0,0,0,210,79a2.86,2.86,0,0,0-.9.67,3,3,0,0,0-.58,1,3.51,3.51,0,0,0-.2,1.22,3.34,3.34,0,0,0,.19,1.15,2.72,2.72,0,0,0,.57,1,2.48,2.48,0,0,0,.9.65,2.86,2.86,0,0,0,1.2.24,2.39,2.39,0,0,0,1.16-.27,2.57,2.57,0,0,0,.85-.76l.88.66a3.53,3.53,0,0,1-.31.34,2.83,2.83,0,0,1-.57.45,4,4,0,0,1-.86.39,3.79,3.79,0,0,1-1.17.17,3.84,3.84,0,0,1-1.65-.35,4.07,4.07,0,0,1-1.24-.91,3.86,3.86,0,0,1-.79-1.28,4,4,0,0,1-.27-1.44,4.59,4.59,0,0,1,.29-1.64,3.94,3.94,0,0,1,.82-1.3,3.55,3.55,0,0,1,1.26-.85,4.23,4.23,0,0,1,3.13,0,2.91,2.91,0,0,1,1.2.91Z" transform="translate(0 13)"/><path class="cls-3" d="M215.06,81.15a2.49,2.49,0,0,1,.95-.57,3.21,3.21,0,0,1,1.09-.19,2.8,2.8,0,0,1,1,.14,1.89,1.89,0,0,1,.67.38,1.47,1.47,0,0,1,.38.55,1.56,1.56,0,0,1,.13.64v2.63c0,.18,0,.35,0,.5l0,.43h-.87q0-.39,0-.78h0a2,2,0,0,1-.77.71,2.56,2.56,0,0,1-1,.2,2.26,2.26,0,0,1-.69-.1,1.71,1.71,0,0,1-.57-.29,1.37,1.37,0,0,1-.38-.48,1.44,1.44,0,0,1-.14-.67,1.5,1.5,0,0,1,.22-.84,1.69,1.69,0,0,1,.61-.54,2.89,2.89,0,0,1,.9-.31,6.36,6.36,0,0,1,1.1-.09h.72v-.22a1.09,1.09,0,0,0-.08-.39,1.08,1.08,0,0,0-.61-.6,1.45,1.45,0,0,0-.54-.09,2.31,2.31,0,0,0-.49,0,2,2,0,0,0-.39.14,1.61,1.61,0,0,0-.31.19l-.28.2Zm2.76,2a5.63,5.63,0,0,0-.71,0,2.65,2.65,0,0,0-.67.14,1.29,1.29,0,0,0-.49.31.79.79,0,0,0,.11,1.13,1.47,1.47,0,0,0,.81.2,1.4,1.4,0,0,0,.68-.14,1.25,1.25,0,0,0,.46-.35,1.23,1.23,0,0,0,.25-.48,2,2,0,0,0,.08-.53v-.32Z" transform="translate(0 13)"/><path class="cls-3" d="M225.83,85.66h-1v-.74h0a1.83,1.83,0,0,1-.78.64,2.29,2.29,0,0,1-1,.23,2.85,2.85,0,0,1-1.08-.2,2.35,2.35,0,0,1-.83-.58,2.51,2.51,0,0,1-.52-.86,2.81,2.81,0,0,1-.19-1.06,2.9,2.9,0,0,1,.19-1.07,2.42,2.42,0,0,1,.52-.86,2.46,2.46,0,0,1,.83-.57,2.85,2.85,0,0,1,1.08-.2,2.32,2.32,0,0,1,1,.23,1.89,1.89,0,0,1,.75.64h0v-3.8h1Zm-2.67-.78a1.59,1.59,0,0,0,.7-.14,1.55,1.55,0,0,0,.53-.36,1.63,1.63,0,0,0,.34-.57,2.22,2.22,0,0,0,0-1.44,1.63,1.63,0,0,0-.34-.57,1.58,1.58,0,0,0-.53-.37,2,2,0,0,0-1.41,0,1.58,1.58,0,0,0-.53.37,1.63,1.63,0,0,0-.34.57,2.22,2.22,0,0,0,0,1.44,1.63,1.63,0,0,0,.34.57,1.55,1.55,0,0,0,.53.36A1.61,1.61,0,0,0,223.16,84.88Z" transform="translate(0 13)"/><path class="cls-3" d="M228,83.45a1.25,1.25,0,0,0,.15.61,1.46,1.46,0,0,0,.38.47,1.8,1.8,0,0,0,1.21.41,1.48,1.48,0,0,0,.79-.21,2.48,2.48,0,0,0,.62-.56l.74.57a2.74,2.74,0,0,1-2.28,1.05,3,3,0,0,1-1.11-.2,2.46,2.46,0,0,1-.83-.57,2.53,2.53,0,0,1-.53-.86,3.12,3.12,0,0,1-.18-1.07,2.72,2.72,0,0,1,.2-1.07,2.64,2.64,0,0,1,.55-.86,2.71,2.71,0,0,1,.84-.57,2.87,2.87,0,0,1,1.07-.2,2.51,2.51,0,0,1,1.15.24,2.09,2.09,0,0,1,.78.62,2.55,2.55,0,0,1,.44.87,3.62,3.62,0,0,1,.13,1v.35Zm3.08-.78a1.89,1.89,0,0,0-.1-.6,1.31,1.31,0,0,0-.74-.79,1.8,1.8,0,0,0-.65-.11,1.55,1.55,0,0,0-1.16.49,1.75,1.75,0,0,0-.32.48,1.44,1.44,0,0,0-.11.53Z" transform="translate(0 13)"/><path class="cls-3" d="M233.34,80.52h1v.79h0a1.35,1.35,0,0,1,.26-.38,1.65,1.65,0,0,1,.36-.28,1.84,1.84,0,0,1,.92-.26,1.44,1.44,0,0,1,.43.06l0,1-.24,0-.24,0a1.44,1.44,0,0,0-1.1.4,1.78,1.78,0,0,0-.38,1.25v2.58h-1Z" transform="translate(0 13)"/><path class="cls-3" d="M237.37,81.15a2.61,2.61,0,0,1,1-.57,3.15,3.15,0,0,1,1.08-.19,2.86,2.86,0,0,1,1,.14,1.76,1.76,0,0,1,.66.38,1.39,1.39,0,0,1,.39.55,1.73,1.73,0,0,1,.12.64v2.63c0,.18,0,.35,0,.5s0,.29,0,.43h-.87q0-.39,0-.78h0a1.94,1.94,0,0,1-.78.71,2.52,2.52,0,0,1-1,.2,2.2,2.2,0,0,1-.68-.1,1.52,1.52,0,0,1-1-.77,1.57,1.57,0,0,1-.14-.67,1.51,1.51,0,0,1,.23-.84,1.66,1.66,0,0,1,.6-.54,3,3,0,0,1,.9-.31,6.48,6.48,0,0,1,1.11-.09h.71v-.22a1.07,1.07,0,0,0-.07-.39,1.08,1.08,0,0,0-.61-.6,1.49,1.49,0,0,0-.54-.09,2.41,2.41,0,0,0-.5,0,1.88,1.88,0,0,0-.38.14,1.69,1.69,0,0,0-.32.19l-.27.2Zm2.76,2a5.74,5.74,0,0,0-.71,0,2.66,2.66,0,0,0-.66.14,1.29,1.29,0,0,0-.49.31.66.66,0,0,0-.19.49.7.7,0,0,0,.3.64,1.47,1.47,0,0,0,.81.2,1.45,1.45,0,0,0,.68-.14,1.25,1.25,0,0,0,.46-.35,1.38,1.38,0,0,0,.25-.48,1.93,1.93,0,0,0,.07-.53v-.32Z" transform="translate(0 13)"/><g class="cls-4"><rect class="cls-2" x="1" y="14" width="104.16" height="104.16"/><path class="cls-5" d="M64.1-10a2.69,2.69,0,0,0-1.32-.25h-.2l-2.82,0h0a.68.68,0,0,1-.48-.14,1,1,0,0,1-.22-.44l-.44-1.59a.89.89,0,0,0-.86-.66H48.39a.91.91,0,0,0-.87.66c-.14.53-.29,1.05-.43,1.57a1,1,0,0,1-.22.45.68.68,0,0,1-.48.13h0l-2.82,0h-.2A2.71,2.71,0,0,0,42-10a1.29,1.29,0,0,0-.69,1.37c.17.68.93.91,1.57,1L46.24-7a.9.9,0,0,1,.75.87,6.92,6.92,0,0,0,.2,2.5v0a.88.88,0,0,0,.82.51H58.1a.86.86,0,0,0,.81-.51h0a6.92,6.92,0,0,0,.2-2.5A.9.9,0,0,1,59.86-7l3.36-.57c.64-.1,1.4-.32,1.57-1A1.29,1.29,0,0,0,64.1-10Z" transform="translate(0 13)"/><path class="cls-5" d="M52,58.7h0c-2.61.1-5.28,0-7.57-1.11a16.46,16.46,0,0,1-5.17-4.73L36.5,49.5c-.14-.16-.25-.32-.38-.48-6.36-8.08,1.18-12.71,1.18-12.71a5.08,5.08,0,0,1-1.25-2.59,28.89,28.89,0,0,1,.56-13.25,8.59,8.59,0,0,0-7.22-3.14c-3.53.17-6.73,1.89-9.77,3.57-2,1.13-4.22,2.4-5.1,4.47a8.77,8.77,0,0,0-.27,4.69,47.7,47.7,0,0,0,2.28,9.21A3.33,3.33,0,0,0,17.64,41c.87.59,2.07.36,3.09.65a4.22,4.22,0,0,1,2.67,3.55c.24,1.51,0,3.06.23,4.58A10,10,0,0,0,24,51.24c.45.57,1.68,1.62,4.41,1l.4-.09a4.36,4.36,0,0,1,1.67-.53l.46,0c2.63,0,4.85,2.3,5.17,5.34a5.85,5.85,0,0,1-2.94,6c-.72.53-2,1.91-.85,4.61h0l1.24,2.34c1.06,2,2.83,4.36,5.15,3.88A6.12,6.12,0,0,0,41.38,72a26.41,26.41,0,0,1,8.83-5.26,6.1,6.1,0,0,0,2.84-1.58v-5C53.05,58.63,52,58.7,52,58.7ZM46.64,65a6.75,6.75,0,0,1-3.11,1.79,24,24,0,0,1-2.39.64,1.79,1.79,0,0,1-1.19,0,1.91,1.91,0,0,1-.67-.76,30.62,30.62,0,0,1-1.67-3.28,3,3,0,0,1-.35-1.79,2,2,0,0,1,1.14-1.32A4.22,4.22,0,0,1,42.26,60c.76.39,1.38,1,2.13,1.43.57.31,1.22.49,1.77.84a1.89,1.89,0,0,1,1,1.58A1.93,1.93,0,0,1,46.64,65Z" transform="translate(0 13)"/><path class="cls-5" d="M61.83,11a2.2,2.2,0,0,0-1.21-.22l-2.24,0a.57.57,0,0,1-.42-.12.9.9,0,0,1-.18-.41l-.33-1.39a.76.76,0,0,0-.74-.58H49.39a.76.76,0,0,0-.74.58l-.33,1.38a.9.9,0,0,1-.18.41.57.57,0,0,1-.42.12l-2.24,0a2.3,2.3,0,0,0-1.21.22,1.24,1.24,0,0,0-.55,1.25c.14.62.75.82,1.25.92l2.65.51a.76.76,0,0,1,.62.7,7.75,7.75,0,0,0,.15,2.37h0a.74.74,0,0,0,.7.47H57a.75.75,0,0,0,.71-.47h0a8.07,8.07,0,0,0,.16-2.37.74.74,0,0,1,.61-.7l2.65-.51c.51-.1,1.11-.3,1.25-.92A1.24,1.24,0,0,0,61.83,11Z" transform="translate(0 13)"/><path class="cls-5" d="M63,.87A2.41,2.41,0,0,0,61.83.65h-.18l-2.54,0h0a.59.59,0,0,1-.43-.12.76.76,0,0,1-.2-.4L58-1.28a.8.8,0,0,0-.78-.6h-8.4a.82.82,0,0,0-.79.6L47.67.14a.83.83,0,0,1-.19.4A.63.63,0,0,1,47,.66h0l-2.55,0h-.18a2.41,2.41,0,0,0-1.19.22,1.17,1.17,0,0,0-.63,1.24c.16.61.85.81,1.42.91l3,.51a.8.8,0,0,1,.68.79,6.23,6.23,0,0,0,.18,2.25v0A.78.78,0,0,0,48.5,7h9.1a.78.78,0,0,0,.74-.47h0a6.23,6.23,0,0,0,.18-2.25.82.82,0,0,1,.68-.8l3-.5c.57-.1,1.26-.3,1.42-.91A1.17,1.17,0,0,0,63,.87Z" transform="translate(0 13)"/><path class="cls-5" d="M64.5,16.62a7.2,7.2,0,0,1-4.58,1.77H46.18a7.2,7.2,0,0,1-4.58-1.77c-2.1-1.8-6.22,6.29-4.33,16.89a4.05,4.05,0,0,0,1.14,2.18l.26.25a1.48,1.48,0,0,1,.44,1.13l0,.3a1.26,1.26,0,0,0,.45,1.06l2.23,1.89A3.09,3.09,0,0,1,43,42.8a.84.84,0,0,0,.17.55l2.34,3a3.86,3.86,0,0,1,.72,2.6,1.52,1.52,0,0,0,.39,1.1L50,53.74l1.64,2.1a6.67,6.67,0,0,0,.67.73,1,1,0,0,0,1.43,0,7.76,7.76,0,0,0,.66-.73l1.64-2.1,3.4-3.67a1.49,1.49,0,0,0,.39-1.14,3.57,3.57,0,0,1,.72-2.56l2.34-3a.92.92,0,0,0,.17-.55,3,3,0,0,1,1-2.32l2.42-2A1.26,1.26,0,0,0,67,37.37l0-.3a1.48,1.48,0,0,1,.44-1.13l.26-.25a4.05,4.05,0,0,0,1.14-2.18C70.72,22.91,66.6,14.82,64.5,16.62Zm-19.7,22A1.92,1.92,0,0,1,42.7,37a2.16,2.16,0,0,1,4.2,0A1.92,1.92,0,0,1,44.8,38.63Zm.82,4.09a1.88,1.88,0,1,1,1.83,1.46A1.68,1.68,0,0,1,45.62,42.72Zm3.81,6.37A1.17,1.17,0,1,1,50.86,48,1.31,1.31,0,0,1,49.43,49.09Zm7.24,0A1.16,1.16,0,1,1,58.09,48,1.31,1.31,0,0,1,56.67,49.09Zm2-4.91a1.5,1.5,0,1,1,1.83-1.46A1.67,1.67,0,0,1,58.65,44.18Zm2.65-5.55A1.92,1.92,0,0,1,59.2,37a2.16,2.16,0,0,1,4.2,0A1.92,1.92,0,0,1,61.3,38.63Z" transform="translate(0 13)"/><g class="cls-6"><path class="cls-7" d="M34.84,57.06c-.27-2.54-2.18-4.43-4.27-4.21s-3.56,2.46-3.29,5a5.59,5.59,0,0,0,.4,1.56c-.19.87-1.1,2.48-5.21,2.48H22s-.71,0-.56,2.18,1.73,29.08,1.73,29.08.19,1.12,1,1.12h0c.79,0,.88-1.29.88-1.29l.16-18.51a30.32,30.32,0,0,1,.8-6,14.88,14.88,0,0,1,3.19-7.06,3.32,3.32,0,0,0,2.31.65C33.63,61.85,35.11,59.61,34.84,57.06Z" transform="translate(0 13)"/></g><path class="cls-5" d="M29.38,69a5.1,5.1,0,0,1-.6-2.5v0c0-.59-.11-2-.8-1.44-.88.68-1.63,6.16-1.63,6.16h0c-.13,1-.23,2.11-.28,3.25L25.91,93V93c-.08,1-.63,2.06-1.71,2.06a2,2,0,0,1-1.85-1.81V93.2c0-.27-1.57-26.94-1.72-29.07a3.54,3.54,0,0,1,.53-2.65,1.13,1.13,0,0,1,.82-.41h.79a5,5,0,0,0-1.93-1.87,3.07,3.07,0,0,0-2.81.09c-4.12,1.85-3.35,5.13-1.67,8.73a31.5,31.5,0,0,1,2.43,7.66,63,63,0,0,1,.75,8.11q.54,10.88,1.07,21.75h7.17q-.18-14.33-.35-28.65v-.78c0-.85.07-1.65.14-2.41a2.18,2.18,0,0,1,1-1.18A2.41,2.41,0,0,0,29.74,71,2.93,2.93,0,0,0,29.38,69Z" transform="translate(0 13)"/><path class="cls-5" d="M88.11,58.53c-2.86-1.29-2.84,2-6,.38l-.35-.21A1.64,1.64,0,0,1,81,57.42a3.68,3.68,0,0,0,.06-.57A4.84,4.84,0,1,0,73.85,61a6,6,0,0,1,2.06,1.87,6.34,6.34,0,0,1,.35.64v0h0c.09.19.19.38.28.59.83,1.88.89,3,.62,3.59A4.55,4.55,0,0,1,76.7,69a2.89,2.89,0,0,0-.35,2,2.38,2.38,0,0,0,1.21,1.54,2.17,2.17,0,0,1,1,1.18c.06.76.11,1.56.14,2.41v.78c0,.55,0,1.1,0,1.65q-.2,13.5-.38,27h7.14Q86,94.29,86.56,83a61,61,0,0,1,.76-8.11,31.53,31.53,0,0,1,2.44-7.66C91.45,63.66,92.23,60.39,88.11,58.53Z" transform="translate(0 13)"/><path class="cls-1" d="M67.7,60.24A4.21,4.21,0,0,0,63.85,60c-.77.39-1.39,1-2.14,1.43-.57.31-1.22.49-1.77.84a1.89,1.89,0,0,0-1,1.58A1.93,1.93,0,0,0,59.46,65a6.75,6.75,0,0,0,3.11,1.79c.79.25,1.59.47,2.39.64a1.79,1.79,0,0,0,1.19,0,1.84,1.84,0,0,0,.67-.76,32.66,32.66,0,0,0,1.68-3.28,3,3,0,0,0,.34-1.79A2,2,0,0,0,67.7,60.24Z" transform="translate(0 13)"/><path class="cls-5" d="M91.58,25.37c-.88-2.07-3.06-3.34-5.1-4.47-3-1.68-6.24-3.4-9.76-3.57a9.59,9.59,0,0,0-4.29.83h0c-.15.06-.29.14-.44.21h0l-.42.23,0,0a4,4,0,0,0-.38.24l0,0-.33.24-.08.07-.28.23-.12.12-.22.2-.16.19-.15.16-.28.36h0a29,29,0,0,1,.55,13.25,5.49,5.49,0,0,1-.17.7v0a5.28,5.28,0,0,1-1.06,1.84h0s7.27,4.49,1.46,12.32L70,49h0l-.38.48-2.75,3.36a16.61,16.61,0,0,1-5.18,4.73c-.22.11-.45.21-.68.3l-.11,0-.67.22-.13,0c-.23.07-.46.13-.7.18l-.07,0-.7.12-.08,0-.72.09h-.14L57,58.7h-.12l-.76,0H55.3l-1.2,0h0s-1.05-.07-1.05,1.42v5a6.1,6.1,0,0,0,2.84,1.58A26.41,26.41,0,0,1,64.72,72a6.12,6.12,0,0,0,2.71,1.75c2.32.48,4.09-1.87,5.15-3.88l2.33-4.4A2.4,2.4,0,0,0,74.7,63a5.06,5.06,0,0,0-1.38-1.11,5.88,5.88,0,1,1,7.12-9.23.78.78,0,0,0,1.26-.26,10.65,10.65,0,0,0,.77-2.64c.21-1.52,0-3.07.23-4.58a4.24,4.24,0,0,1,2.67-3.55c1-.29,2.22-.06,3.09-.65a3.33,3.33,0,0,0,1.11-1.75,47.7,47.7,0,0,0,2.28-9.21A8.77,8.77,0,0,0,91.58,25.37Zm-23.08,38a32.66,32.66,0,0,1-1.68,3.28,1.84,1.84,0,0,1-.67.76,1.79,1.79,0,0,1-1.19,0c-.8-.17-1.6-.39-2.39-.64A6.75,6.75,0,0,1,59.46,65a1.93,1.93,0,0,1-.54-1.14,1.89,1.89,0,0,1,1-1.58c.55-.35,1.2-.53,1.77-.84.75-.41,1.37-1,2.14-1.43a4.21,4.21,0,0,1,3.85.25,2,2,0,0,1,1.14,1.32A3,3,0,0,1,68.5,63.35Z" transform="translate(0 13)"/></g><path class="cls-5" d="M53.08,1a52.08,52.08,0,0,1,52.08,52.08h0A52.08,52.08,0,0,1,1,53.08H1A52.08,52.08,0,0,1,53.08,1m0-1a53.08,53.08,0,1,0,53.08,53.08A53.14,53.14,0,0,0,53.08,0Z" transform="translate(0 13)"/></g></g></svg>