<?xml version="1.0" encoding="UTF-8"?>
<svg id="Capa_1" data-name="Capa 1" xmlns="http://www.w3.org/2000/svg" xmlns:xlink="http://www.w3.org/1999/xlink" viewBox="0 0 107.12 107.12">
  <defs>
    <style>
      .cls-1 {
        fill: none;
      }

      .cls-2 {
        fill: #01a89e;
      }

      .cls-3 {
        clip-path: url(#clippath-1);
      }

      .cls-4 {
        fill: #fff;
      }

      .cls-5 {
        fill: url(#Degradado_sin_nombre);
      }

      .cls-6 {
        clip-path: url(#clippath);
      }
    </style>
    <clipPath id="clippath">
      <path class="cls-1" d="M53.56,1.01h0c29.02,0,52.55,23.53,52.55,52.55s-23.53,52.55-52.55,52.55h0C24.54,106.11,1.01,82.58,1.01,53.56S24.54,1.01,53.56,1.01Z"/>
    </clipPath>
    <clipPath id="clippath-1">
      <path class="cls-1" d="M35.15,57.58c-.27-2.57-2.19-4.47-4.3-4.25-2.11.22-3.6,2.48-3.33,5.05.06.56.19,1.1.41,1.62-.19.87-1.11,2.5-5.26,2.5h-.47s-.72,0-.57,2.2,1.75,29.3,1.75,29.3c0,0,.19,1.12,1,1.13.8,0,.89-1.3.89-1.3l.16-18.68c.07-2.04.33-4.06.8-6.05.94-4.2,2.15-5.77,3.23-7.12.67.5,1.5.73,2.33.66,2.15-.23,3.63-2.49,3.36-5.06Z"/>
    </clipPath>
    <linearGradient id="Degradado_sin_nombre" data-name="Degradado sin nombre" x1="35.18" y1="34.66" x2="21.61" y2="34.66" gradientTransform="translate(0 108.88) scale(1 -1)" gradientUnits="userSpaceOnUse">
      <stop offset="0" stop-color="#f6f6f6"/>
      <stop offset="1" stop-color="#c6c6c6"/>
    </linearGradient>
  </defs>
  <g id="Capa_2" data-name="Capa 2">
    <g id="Capa_1-2" data-name="Capa 1-2">
      <g class="cls-6">
        <g>
          <rect class="cls-2" x="1.01" y="1.01" width="105.1" height="105.1"/>
          <path class="cls-4" d="M52.47,59.23h0c-2.63.1-5.32,0-7.64-1.12-2.06-1.2-3.84-2.83-5.22-4.77l-2.78-3.4c-.14-.16-.25-.31-.38-.47-6.45-8.15,1.18-12.83,1.18-12.83-.66-.74-1.1-1.66-1.26-2.64-.85-4.44-.65-9.02.57-13.37-1.77-2.18-4.49-3.36-7.29-3.17-3.55.17-6.78,1.91-9.85,3.6-2.06,1.14-4.26,2.42-5.15,4.51-.51,1.52-.61,3.16-.27,4.73.45,3.17,1.22,6.28,2.3,9.29.18.69.57,1.31,1.12,1.77.87.59,2.09.36,3.12.66,1.51.58,2.55,1.97,2.69,3.58.24,1.53,0,3.09.24,4.62.07.49.18.98.33,1.46.45.57,1.7,1.63,4.44,1l.41-.08c.52-.29,1.1-.48,1.69-.55h.46c2.65,0,4.9,2.32,5.22,5.39.34,2.43-.85,4.82-3,6-.73.54-2,1.93-.86,4.65h0l1.25,2.36c1.08,2,2.86,4.4,5.2,3.92,1.06-.33,2-.94,2.74-1.77,2.59-2.33,5.61-4.14,8.9-5.31,1.08-.26,2.07-.81,2.87-1.59v-5c.03-1.54-1.03-1.47-1.03-1.47ZM47.07,65.57c-.87.87-1.95,1.49-3.14,1.8-.79.26-1.6.48-2.42.65-.39.14-.8.14-1.19,0-.29-.18-.53-.45-.68-.76-.62-1.08-1.16-2.19-1.64-3.34-.31-.55-.43-1.18-.35-1.8.16-.6.58-1.09,1.15-1.33,1.18-.72,2.63-.81,3.89-.25.77.39,1.39,1,2.15,1.44.58.31,1.23.5,1.79.84.84.34,1.25,1.3.91,2.15-.09.23-.24.43-.42.6h-.05Z"/>
          <path class="cls-4" d="M62.39,11.07c-.38-.19-.8-.27-1.22-.22h-2.26c-.15.03-.31-.02-.43-.12-.09-.12-.15-.26-.17-.41l-.31-1.38c-.08-.34-.39-.58-.74-.58h-7.4c-.35,0-.66.24-.74.58-.11.47-.22.93-.34,1.39-.02.15-.08.29-.17.41-.12.1-.28.15-.43.12h-2.25c-.42-.05-.85.03-1.23.22-.42.27-.63.77-.55,1.26.14.63.75.83,1.26.93l2.67.51c.35.06.6.36.62.71-.06.8,0,1.61.16,2.39h0c.11.29.4.48.71.47h8c.31,0,.59-.18.71-.47h0c.17-.78.23-1.59.16-2.39.02-.35.28-.64.62-.71l2.67-.51c.51-.1,1.13-.3,1.26-.93.08-.51-.16-1.01-.6-1.27Z"/>
          <path class="cls-4" d="M63.59.87c-.38-.17-.79-.24-1.2-.22h-2.75c-.16.02-.31-.03-.44-.12-.1-.11-.17-.24-.2-.38l-.4-1.44c-.1-.36-.42-.6-.79-.6h-8.52c-.37,0-.69.24-.79.6-.13.48-.26,1-.4,1.43-.02.15-.09.29-.19.41-.13.1-.29.14-.45.12h-2.75c-.41-.02-.82.05-1.2.22-.47.23-.72.75-.63,1.26.16.62.85.82,1.43.92l3.06.51c.39.06.68.39.68.79-.08.76-.02,1.54.18,2.28h0c.13.29.42.48.74.47h9.19c.32,0,.61-.19.74-.48h0c.2-.74.26-1.52.18-2.28,0-.39.29-.73.68-.79l3.06-.51c.58-.1,1.28-.3,1.43-.92.09-.52-.18-1.04-.66-1.27Z"/>
          <path class="cls-4" d="M65.09,16.77c-1.28,1.12-2.92,1.75-4.62,1.79h-13.87c-1.69-.04-3.32-.68-4.6-1.79-2.11-1.82-6.27,6.34-4.36,17,.13.84.52,1.63,1.12,2.23l.26.25c.31.3.47.71.44,1.14v.31c-.03.41.15.81.46,1.07l2.25,1.91c.79.59,1.26,1.52,1.25,2.5,0,.2.05.39.17.55l2.36,3c.55.76.81,1.69.73,2.63-.02.41.12.8.4,1.1l3.42,3.71,1.66,2.12c.21.26.43.51.67.74.4.38,1.04.38,1.44,0,.24-.23.47-.48.67-.74l1.66-2.12,3.4-3.65c.29-.31.43-.72.39-1.14-.1-.93.16-1.85.73-2.59l2.36-3c.12-.16.18-.36.17-.56-.02-.9.37-1.76,1.06-2.34l2.44-2.06c.32-.26.49-.66.46-1.07v-.31c-.06-.44.09-.87.39-1.19l.3-.26c.61-.59,1.02-1.36,1.16-2.2,1.9-10.69-2.25-18.8-4.37-17.03ZM45.21,39c-1.05.11-1.99-.64-2.12-1.69.27-1.17,1.43-1.9,2.6-1.63.81.19,1.44.82,1.63,1.63-.13,1.04-1.07,1.79-2.11,1.69ZM46,43.11c.24-1.02,1.26-1.66,2.28-1.42.7.16,1.25.71,1.42,1.42-.24,1.02-1.26,1.66-2.28,1.42-.7-.16-1.25-.71-1.42-1.42ZM49.85,49.54c-.64-.14-1.03-.78-.89-1.41.14-.64.78-1.03,1.41-.89.54.12.92.6.92,1.15-.09.7-.71,1.2-1.41,1.15h-.03ZM57.15,49.54c-.64-.14-1.03-.78-.89-1.41.14-.64.78-1.03,1.41-.89.54.12.92.6.92,1.15-.09.7-.71,1.2-1.41,1.15h-.03ZM59.15,44.54c-.81-.19-1.32-1-1.13-1.81.19-.81,1-1.32,1.81-1.13.7.16,1.19.79,1.17,1.51-.11.9-.92,1.55-1.82,1.47l-.03-.04ZM61.86,39c-1.05.11-1.99-.64-2.12-1.69.27-1.17,1.43-1.9,2.6-1.63.81.19,1.44.82,1.63,1.63-.13,1.04-1.06,1.8-2.11,1.69Z"/>
          <g class="cls-3">
            <path class="cls-5" d="M35.15,57.58c-.27-2.57-2.19-4.47-4.3-4.25s-3.6,2.48-3.33,5.05c.06.56.19,1.1.41,1.62-.19.87-1.11,2.5-5.26,2.5h-.47s-.72,0-.57,2.2,1.75,29.3,1.75,29.3c0,0,.19,1.12,1,1.13h0c.8,0,.89-1.3.89-1.3l.16-18.68c.07-2.04.33-4.06.8-6.05.94-4.2,2.15-5.77,3.23-7.12.67.5,1.5.73,2.33.66,2.15-.23,3.63-2.49,3.36-5.06Z"/>
          </g>
          <path class="cls-4" d="M29.65,69.64c-.42-.78-.62-1.65-.6-2.53h0c0-.6-.11-2-.81-1.45-.88.68-1.64,6.21-1.64,6.21h0c-.13,1-.23,2.14-.29,3.28l-.16,18.66v.06c-.07,1-.63,2.07-1.72,2.07-.98-.07-1.77-.84-1.86-1.82v-.09c0-.28-1.6-27.19-1.75-29.34-.19-.93,0-1.9.52-2.69.21-.25.51-.4.83-.42h.83c-.48-.79-1.18-1.42-2-1.84-.91-.43-1.96-.4-2.84.09-4.16,1.87-3.36,5.17-1.66,8.81,1.16,2.46,2,5.06,2.5,7.73.43,2.71.68,5.44.76,8.18.36,7.33.72,14.67,1.07,22h7.17c-.11-9.7-.22-19.36-.33-28.97v-.67s0-.07,0-.11c0-.86.07-1.67.14-2.44.18-.5.53-.93,1-1.19.6-.32,1.03-.88,1.19-1.54.12-.68,0-1.39-.35-1.99Z"/>
          <path class="cls-4" d="M88.91,59.06c-2.89-1.3-2.87,2-6,.38l-.36-.21c-.45-.28-.73-.76-.76-1.29.03-.19.05-.39.06-.58.02-2.7-2.16-4.9-4.86-4.92s-4.9,2.16-4.92,4.86c-.01,1.77.93,3.4,2.46,4.28.83.45,1.55,1.1,2.08,1.89.12.2.24.41.35.64h0c.09.19.19.38.28.59.84,1.9.9,3,.63,3.62-.1.45-.26.88-.48,1.29-.36.6-.49,1.31-.36,2,.17.66.61,1.22,1.22,1.54.47.26.82.69,1,1.19.07.77.12,1.58.14,2.44v2.45c-.15,9.1-.28,18.19-.39,27.28h7.21c.38-7.57.76-15.14,1.15-22.72.08-2.74.34-5.47.77-8.18.49-2.67,1.32-5.27,2.47-7.73,1.68-3.63,2.47-6.93-1.69-8.81Z"/>
          <path class="cls-1" d="M68.31,60.79c-1.18-.72-2.63-.81-3.89-.25-.76.39-1.39,1-2.15,1.44-.58.31-1.23.5-1.79.84-.59.32-.97.93-1,1.6.04.43.22.84.52,1.15.86.87,1.95,1.5,3.14,1.8.79.26,1.6.48,2.41.65.39.13.81.13,1.2,0,.29-.19.52-.45.67-.76.63-1.07,1.2-2.18,1.7-3.32.3-.55.42-1.18.35-1.8-.15-.61-.58-1.11-1.16-1.35Z"/>
          <path class="cls-4" d="M92.41,25.6c-.89-2.09-3.08-3.37-5.14-4.51-3.08-1.69-6.3-3.43-9.86-3.6-1.48-.06-2.96.22-4.32.83h0l-.45.22h0l-.42.23h0c-.13.07-.26.15-.38.24h0l-.34.25-.08.07c-.1.07-.19.15-.28.23l-.12.12c-.08.06-.15.13-.22.2l-.17.19-.15.16c-.1.12-.19.24-.28.37h0c1.2,4.37,1.37,8.96.49,13.4-.04.24-.1.47-.17.7v.05c-.22.69-.59,1.32-1.07,1.86h0s7.34,4.53,1.48,12.43l-.3.4h0c-.12.16-.25.32-.38.47-.92,1.14-1.85,2.27-2.78,3.4-1.38,1.94-3.16,3.57-5.22,4.77-.22.11-.45.21-.69.3l-.11.05c-.22.09-.45.16-.67.23h-.14c-.23.07-.46.13-.7.18h-.08l-.7.14h-.08c-.24,0-.49.06-.73.09h-.14c-.24,0-.48,0-.73.06h-2.87s-1.06-.07-1.06,1.44v5c.8.78,1.79,1.33,2.87,1.59,3.29,1.17,6.32,2.97,8.91,5.31.7.87,1.62,1.54,2.67,1.92,2.34.48,4.13-1.89,5.2-3.92l2.39-4.47c.37-.78.29-1.7-.21-2.41-.39-.44-.86-.81-1.38-1.1-2.84-1.63-3.83-5.27-2.19-8.11,1.63-2.84,5.27-3.83,8.11-2.19.47.27.89.6,1.27.98.31.3.81.29,1.12-.02.06-.07.12-.14.15-.23.37-.85.63-1.75.78-2.67.21-1.53,0-3.09.23-4.62.15-1.61,1.19-2.99,2.69-3.58,1-.3,2.25-.07,3.12-.66.56-.45.95-1.07,1.12-1.77,1.08-3.01,1.85-6.12,2.3-9.29.34-1.57.24-3.21-.29-4.73ZM69.12,63.92c-.5,1.14-1.07,2.25-1.7,3.32-.15.31-.38.57-.67.76-.39.13-.81.13-1.2,0-.81-.17-1.62-.39-2.41-.65-1.19-.3-2.27-.91-3.14-1.78-.31-.31-.5-.72-.54-1.15.03-.67.41-1.28,1-1.6.56-.34,1.21-.53,1.79-.84.76-.42,1.39-1,2.15-1.44,1.26-.56,2.71-.47,3.89.25.57.24,1,.73,1.16,1.33.08.62-.04,1.25-.33,1.8Z"/>
        </g>
      </g>
      <path class="cls-4" d="M53.56,1c29.02,0,52.55,23.53,52.55,52.55h0c0,29.03-23.52,52.56-52.55,52.56S1,82.59,1,53.56h0C.99,24.54,24.52,1.01,53.54,1c0,0,.01,0,.02,0M53.56,0C23.98,0,0,23.98,0,53.56s23.98,53.56,53.56,53.56,53.56-23.98,53.56-53.56h0C107.09,23.99,83.13.03,53.56,0Z"/>
    </g>
  </g>
</svg>