<svg xmlns="http://www.w3.org/2000/svg" viewBox="0 0 501.32 501.32"><defs><style>.cls-1{fill:#fff;}.cls-2{fill:none;stroke:#01a89e;stroke-linejoin:round;stroke-width:8px;}</style></defs><g id="Capa_2" data-name="Capa 2"><g id="Capa_1-2" data-name="Capa 1"><rect class="cls-1" width="501.32" height="501.32"/><path class="cls-2" d="M285.46,234.5c31.85-31.85,4.83-54.53,4.83-54.53L203,130.75h-77.2L201,179.49s31.37,26.06,29.44,44.87,6.27,24.13,6.27,24.13S253.62,266.34,285.46,234.5Z"/><path class="cls-2" d="M254,289.86a3.56,3.56,0,0,0-4.66,4.66c3.89,9.54,9.59,31.3,8.62,76.05h15.92V306.88S265,294.56,254,289.86Z"/><path class="cls-2" d="M292.22,247c-14.73.2-27.23,3.62-36.07,8.94-13.76,8.29-12.76,28.5,1.58,35.74a39.52,39.52,0,0,1,16.15,15.16s8,12.54,14.48,63.69h39.57s0-46.11,3.47-73.74a49.2,49.2,0,0,0-5.16-29.46C320.69,257.05,310.55,246.8,292.22,247Z"/><path class="cls-2" d="M320.08,188.24s-9.77-3.94-7.41,7c.11.53,7.23,32.93,7.23,33.84s6,14.84,12.85,4.34S344.69,194.93,320.08,188.24Z"/></g></g></svg>