<svg xmlns="http://www.w3.org/2000/svg" viewBox="0 0 501.32 501.32"><defs><style>.cls-1{fill:#fff;}.cls-2{fill:none;stroke:#01a89e;stroke-linejoin:round;stroke-width:8px;}</style></defs><g id="Capa_2" data-name="Capa 2"><g id="Capa_1-2" data-name="Capa 1"><rect class="cls-1" width="501.32" height="501.32"/><path class="cls-2" d="M266.45,151.14h18.47a21.77,21.77,0,0,1,21.77,21.76v127"/><line class="cls-2" x1="230.25" y1="151.14" x2="243.78" y2="151.14"/><line class="cls-2" x1="193.73" y1="151.14" x2="207.9" y2="151.14"/><path class="cls-2" d="M306.69,338.8a21.77,21.77,0,0,1-21.77,21.76H153.22a21.76,21.76,0,0,1-21.76-21.76V172.9a21.76,21.76,0,0,1,21.76-21.76h18.16"/><rect class="cls-2" x="171.38" y="133.82" width="22.34" height="32.89" rx="7.13"/><path class="cls-2" d="M207.9,151.14v8.44a7.14,7.14,0,0,0,7.14,7.13h8.07a7.14,7.14,0,0,0,7.14-7.13V141a7.14,7.14,0,0,0-7.14-7.13H215A7.14,7.14,0,0,0,207.9,141v10.19"/><rect class="cls-2" x="244.11" y="133.82" width="22.34" height="32.89" rx="7.13"/><line class="cls-2" x1="156.43" y1="203.19" x2="178.49" y2="203.19"/><line class="cls-2" x1="190.63" y1="203.19" x2="245.52" y2="203.19"/><line class="cls-2" x1="258.21" y1="203.19" x2="280.28" y2="203.19"/><line class="cls-2" x1="156.43" y1="224.99" x2="280.28" y2="224.99"/><line class="cls-2" x1="156.43" y1="252.02" x2="178.49" y2="252.02"/><line class="cls-2" x1="190.63" y1="252.02" x2="245.52" y2="252.02"/><line class="cls-2" x1="255.28" y1="252.02" x2="280.28" y2="252.02"/><line class="cls-2" x1="156.43" y1="277.95" x2="178.49" y2="277.95"/><line class="cls-2" x1="156.43" y1="307.46" x2="242.97" y2="307.46"/><path class="cls-2" d="M190.63,278h17.43a34,34,0,0,0,8.1-.95c5.65-1.39,16.88-2.73,17.5,8.4,0,0,5,12.13,18.76,6.34l18.21,27.31,92.68,49.65s17.66,12.69,27.86-1.93-9.93-26.2-9.93-26.2l-93-50.69-35.86,1.86"/><line class="cls-2" x1="267.66" y1="314.6" x2="281.22" y2="290.25"/><polyline class="cls-2" points="363.31 368.7 366.07 352.5 379.46 339.6"/><path class="cls-2" d="M281.22,323.53s1.33-12.62,11.13-12.2c0,0-3.53-12.62,6.24-15.83"/><line class="cls-2" x1="366.07" y1="352.5" x2="292.35" y2="311.33"/></g></g></svg>