<svg xmlns="http://www.w3.org/2000/svg" viewBox="0 0 501.32 501.32"><defs><style>.cls-1{fill:#fff;}.cls-2{fill:#01a79d;}</style></defs><g id="Capa_2" data-name="Capa 2"><g id="Capa_1-2" data-name="Capa 1"><rect class="cls-1" width="501.32" height="501.32"/><path class="cls-2" d="M365.29,141.47c-3.27-3.38-7.66-5.1-13.05-5.1H293.43c-.18,0-18.39.24-18.39,20.52V266.24a11.24,11.24,0,0,1-2.44,7.19,7.07,7.07,0,0,1-4.09,2.59L191,284.45l-16.6-16.6a11.16,11.16,0,0,0-15.77,0l-.44.44a11.16,11.16,0,0,0,0,15.77l5.88,5.88a29.72,29.72,0,0,0-7.35,5.94H129A11.17,11.17,0,0,0,117.81,307v.62a11,11,0,0,0,.47,3.16h-1.69A11.16,11.16,0,0,0,105.44,322v.62a11.17,11.17,0,0,0,11.15,11.16h1.69a10.91,10.91,0,0,0-.47,3.15v.62A11.17,11.17,0,0,0,129,348.66h5.17a11,11,0,0,0-.46,3.16v.62a11.16,11.16,0,0,0,11.15,11.15h11.32a19.48,19.48,0,0,0,8.74,6.45,40.89,40.89,0,0,0,14,2.16H322.11a22.39,22.39,0,0,0,5.91-.8l.31-.09a58.77,58.77,0,0,0,42.57-56.46V156.94C370.92,155.92,370.9,147.26,365.29,141.47ZM116.59,325.74a3.16,3.16,0,0,1-3.15-3.16V322a3.16,3.16,0,0,1,3.15-3.15h35.33v6.93H116.59ZM129,340.66a3.16,3.16,0,0,1-3.16-3.15v-.62a3.16,3.16,0,0,1,3.16-3.15h22.95v6.92H129Zm15.86,14.93a3.15,3.15,0,0,1-3.15-3.15v-.62a3.16,3.16,0,0,1,3.15-3.16h7.09v2.51c0,.47,0,.93.05,1.4,0,.13,0,.27,0,.41q0,.52.12,1c0,.12,0,.24.05.37.06.4.14.8.23,1.19Zm7.43-50.81-.06.28c0,.24-.08.49-.11.73s-.05.43-.07.65,0,.35-.05.53c0,.42-.05.84-.05,1.27v2.57H129a3.17,3.17,0,0,1-3.16-3.16V307a3.16,3.16,0,0,1,3.16-3.15h23.48A8.43,8.43,0,0,0,152.26,304.78ZM283,156.89c0-11.74,8.69-12.49,10.39-12.52h58.81c3.17,0,5.55.86,7.28,2.64a13,13,0,0,1,3.13,6.94L283,176.89ZM163.83,278.4a3.16,3.16,0,0,1,0-4.46l.43-.43a3.15,3.15,0,0,1,4.47,0l12.05,12.05-8.68.94-.16,0Zm39.89,85.8H178.84a33,33,0,0,1-11.21-1.68,11.64,11.64,0,0,1-5.93-4.95l0,0a12.54,12.54,0,0,1-1-2.23l0-.09-.21-.67c0-.07,0-.13,0-.2s-.1-.4-.14-.6a1.7,1.7,0,0,1-.06-.31,4.71,4.71,0,0,1-.09-.52l-.06-.47c0-.13,0-.26,0-.39,0-.3,0-.59,0-.89V308.24a10.17,10.17,0,0,1,1.42-5.14h0a3.88,3.88,0,0,1,.3-.48c0-.09.11-.17.17-.26,2.87-4.21,8.24-6.67,10.64-7.6l.41-.16.15,0,.36-.13,30.34-3.3Zm40.05,0H211.72v-74l32.05-3.49Zm8,0V285.88l14.31-1.55,20.43,79.87Zm74.4-.59-.29.08a14.58,14.58,0,0,1-3.77.51H294.76l-20.89-81.69a14.82,14.82,0,0,0,1.67-1l70.88,70.78A49.86,49.86,0,0,1,326.17,363.61Zm36.73-48.76a50.88,50.88,0,0,1-11,31.57l-71.07-71a19.09,19.09,0,0,0,1.5-3.78l80.6,28.87Zm0-22.82L283,263.42V250.11l79.86,2.94Zm0-47L283,242.11V222.2l79.86-19.32Zm0-50.4L283,214V185.21l79.86-23Z"/></g></g></svg>