<svg xmlns="http://www.w3.org/2000/svg" viewBox="0 0 501.32 501.32"><defs><style>.cls-1{fill:#fff;}.cls-2{fill:none;stroke:#01a89e;stroke-linejoin:round;stroke-width:8px;}</style></defs><g id="Capa_2" data-name="Capa 2"><g id="Capa_1-2" data-name="Capa 1"><rect class="cls-1" width="501.32" height="501.32"/><path class="cls-2" d="M365.28,292.77a7.9,7.9,0,0,0-6-6.62l-1.14-.28a7.93,7.93,0,0,0-9,4.32l-1.59,3.36a10.28,10.28,0,0,1-4.87,4.89h0a10.29,10.29,0,0,1-8.92,0l-1.05-.51a7.91,7.91,0,0,0-7.14.14l-12.42,6.57a7.92,7.92,0,0,0,3,14.89l11.25,1s8.1-12.51,8.1,50.07h21.94V337.91a17.22,17.22,0,0,1,2.28-8.56l7.19-12.59a7.9,7.9,0,0,0,1-5Z"/><path class="cls-2" d="M375,163.5c-45.24-29-64.15,13.17-69.89,27s-16.54,24.56-31.06,24c-1.37-.06-3.41-.4-4.61-.42-4.63,0-8.06,2.35-10.83,6.06a12,12,0,0,1-8,4.83,12,12,0,0,1-8-4.83c-2.76-3.71-6.19-6.1-10.82-6.06-1.2,0-3.24.36-4.61.42-14.52.59-25.32-10.13-31.06-24s-24.65-56-69.89-27,24.31,74.28,24.31,74.28,9.45,8.44-4.73,13.84S152,264.79,152,264.79L186.42,284l5.67-6.85a5.58,5.58,0,0,1,6.7-1.48L222.56,287a4.93,4.93,0,0,0,6.11-1.57l2-2.72a4.92,4.92,0,0,0-.81-6.66c-8.33-7-29-25.29-34.63-37.6-6.83-15,33.33-13.06,41.52-2.15,1,1.28,1.91,3.42,4.65,5.53a15.73,15.73,0,0,0,18.59,0c2.75-2.11,3.7-4.25,4.66-5.53,8.19-10.91,48.35-12.82,41.52,2.15-5.62,12.31-26.3,30.56-34.64,37.6a4.94,4.94,0,0,0-.81,6.66l2,2.72a4.93,4.93,0,0,0,6.11,1.57l23.77-11.3a5.57,5.57,0,0,1,6.69,1.48l5.67,6.85,34.44-19.24s20.26-7.77,6.08-13.17-4.73-13.84-4.73-13.84S420.25,192.53,375,163.5Z"/><path class="cls-2" d="M250.67,204s8.54.68,11.24-11.48l11.48-4.05V174l-22.72,6.75L228,174v14.51l11.48,4.05C242.13,204.69,250.67,204,250.67,204Z"/><path class="cls-2" d="M188.19,304.63l-12.41-6.57a7.91,7.91,0,0,0-7.14-.14l-1.06.51a10.3,10.3,0,0,1-13.78-4.88l-1.6-3.36a7.92,7.92,0,0,0-9-4.32l-1.15.28a7.91,7.91,0,0,0-6,6.62l-2.61,19a7.9,7.9,0,0,0,1,5l7.19,12.59a17.21,17.21,0,0,1,2.27,8.56v32.66h22c0-62.58,8.1-50.07,8.1-50.07l11.25-1a7.92,7.92,0,0,0,6.3-4.18h0A7.91,7.91,0,0,0,188.19,304.63Z"/><path class="cls-2" d="M250.67,160.8s8.54.68,11.24-11.48l11.48-4V130.75l-22.72,6.76L228,130.75v14.52l11.48,4C242.13,161.48,250.67,160.8,250.67,160.8Z"/></g></g></svg>